<svg
							width="241"
							height="241"
							viewBox="0 0 241 241"
							fill="none"
							xmlns="http://www.w3.org/2000/svg"
						>
							<path
								d="M53.3681 173.829C82.8424 210.883 136.774 217.028 173.829 187.553C210.883 158.079 217.028 104.147 187.553 67.0928C158.079 30.0386 104.147 23.8938 67.0928 53.3681C30.0386 82.8424 23.8938 136.774 53.3681 173.829Z"
								fill="#E1FBDD"
							/>
							<path
								d="M53.37 173.831C76.1152 155.739 164.508 85.4277 187.556 67.0948C201.811 85.0158 208.234 107.415 205.641 130.168C203.049 152.92 191.752 173.301 173.831 187.556C155.91 201.811 133.51 208.234 110.758 205.642C88.0061 203.05 67.6252 191.752 53.37 173.831Z"
								fill="#9DCD96"
							/>
							<path
								d="M128.035 134.629C131.258 132.066 131.792 127.377 129.229 124.154L70.7395 50.6231C69.5071 51.502 68.2901 52.4165 67.0916 53.3699C64.351 55.5498 61.7838 57.8666 59.3838 60.2972L117.561 133.436C120.124 136.658 124.813 137.192 128.035 134.629Z"
								fill="#97B692"
							/>
							<path
								d="M76.0442 143.675L38.2471 96.1578C36.3559 102.575 35.2228 109.188 34.8616 115.852L64.3757 152.956C66.9389 156.179 71.6284 156.713 74.8507 154.15C78.073 151.587 78.6069 146.897 76.0442 143.675Z"
								fill="#97B692"
							/>
							<path
								d="M146.038 75.3344C148.602 78.5567 153.291 79.091 156.513 76.5279C159.736 73.9648 160.27 69.2752 157.707 66.0529L133.602 35.7488C127.109 34.7435 120.507 34.4778 113.934 34.9737L146.038 75.3344Z"
								fill="#97B692"
							/>
							<path
								d="M153.594 131.785L187.305 174.166C190.622 170.044 193.511 165.669 195.966 161.104L165.262 122.504C162.699 119.282 158.009 118.747 154.787 121.31C151.565 123.874 151.031 128.563 153.594 131.785Z"
								fill="#3B6435"
							/>
							<path
								d="M152.281 200.086L124.037 164.578C121.474 161.356 116.785 160.822 113.562 163.385C110.34 165.948 109.806 170.638 112.369 173.86L136.841 204.626C142.076 203.612 147.246 202.1 152.281 200.086Z"
								fill="#3B6435"
							/>
							<path
								d="M129.228 124.155L124.031 117.622L112.363 126.903L117.56 133.437C120.123 136.659 124.813 137.193 128.035 134.63C131.257 132.067 131.792 127.378 129.228 124.155Z"
								fill="#3B6435"
							/>
						</svg>