<svg width="360" height="349" viewBox="0 0 360 349" fill="none" xmlns="http://www.w3.org/2000/svg">
<path d="M260.103 294.08C314.973 277.305 345.856 219.224 329.08 164.353C312.304 109.482 254.223 78.5997 199.352 95.3754C144.482 112.151 113.599 170.232 130.375 225.103C147.151 279.974 205.232 310.856 260.103 294.08Z" fill="#CD2D55"/>
<path d="M260.104 294.081C249.806 260.399 209.788 129.505 199.354 95.3755C225.891 87.2621 254.001 89.9685 278.503 102.997C303.005 116.025 320.968 137.815 329.082 164.353C337.195 190.891 334.489 219 321.46 243.503C308.433 268.005 286.642 285.967 260.104 294.081Z" fill="#BF1641"/>
<path d="M198.801 177.926L318.811 141.236C315.492 135.698 311.696 130.54 307.492 125.803L193.518 160.648C188.747 162.107 186.061 167.157 187.52 171.929C188.979 176.7 194.03 179.385 198.801 177.926Z" fill="#96082C"/>
<path d="M256.126 248.637C251.354 250.096 248.669 255.146 250.128 259.918C251.587 264.689 256.637 267.375 261.408 265.916L318.674 248.408C322.831 241.514 326.186 234.147 328.658 226.462L256.126 248.637L256.126 248.637Z" fill="#96082C"/>
<path d="M217.329 224.788C212.557 226.247 209.872 231.297 211.331 236.069C212.79 240.84 217.84 243.526 222.612 242.067L332.739 208.397C333.576 202.119 333.84 195.72 333.495 189.273L217.329 224.788L217.329 224.788Z" fill="#96082C"/>
<path d="M225.313 134.111L294.01 113.108C287.664 108.119 280.765 103.887 273.464 100.496L220.03 116.832C215.258 118.291 212.573 123.341 214.032 128.113C215.491 132.885 220.541 135.57 225.313 134.111Z" fill="#96082C"/>
<path d="M234.001 193.428C235.46 198.199 240.51 200.885 245.282 199.426L331.346 173.113C330.72 170.189 329.972 167.267 329.081 164.354C328.192 161.444 327.179 158.606 326.064 155.834L239.999 182.147C235.227 183.606 232.542 188.656 234.001 193.428Z" fill="#96082C"/>
<path d="M193.516 160.647C188.745 162.106 186.059 167.157 187.518 171.928C188.977 176.7 194.027 179.385 198.799 177.926L222.386 170.715L217.103 153.437L193.517 160.648L193.516 160.647Z" fill="#A91036"/>
<path d="M217.327 224.788C212.555 226.247 209.87 231.297 211.329 236.069C212.788 240.84 217.838 243.526 222.61 242.067L242.355 236.03L237.072 218.752L217.327 224.788L217.327 224.788Z" fill="#A91036"/>
<path d="M116.217 184.511L124.62 187.57C126.762 188.35 129.131 187.245 129.911 185.103L130.93 182.301C131.71 180.16 130.605 177.791 128.463 177.012L120.06 173.953L116.217 184.511Z" fill="#578CAD"/>
<path d="M133.411 163.416C135.553 164.196 137.922 163.091 138.702 160.95L139.721 158.148C140.501 156.006 139.396 153.637 137.254 152.858L128.851 149.799L125.008 160.357L133.411 163.416L133.411 163.416Z" fill="#578CAD"/>
<path opacity="0.1" d="M125.93 183.973L117.526 180.914L116.217 184.512L124.62 187.57C126.762 188.35 129.131 187.246 129.911 185.103L130.93 182.301C130.979 182.167 131.02 182.032 131.055 181.896C130.144 183.779 127.937 184.703 125.93 183.973Z" fill="#231F20"/>
<path opacity="0.1" d="M134.721 159.819L126.317 156.76L125.008 160.358L133.411 163.416C135.553 164.196 137.922 163.091 138.702 160.95L139.721 158.148C139.77 158.014 139.811 157.878 139.846 157.742C138.935 159.625 136.728 160.55 134.721 159.819Z" fill="#231F20"/>
<path d="M98.3725 108.6L96.2557 114.416C95.4759 116.558 93.107 117.662 90.9653 116.883L76.2595 111.53C74.1174 110.751 73.0128 108.382 73.7926 106.24L84.321 77.3132C85.1007 75.1711 87.4695 74.0667 89.6114 74.8463L104.317 80.1988C106.459 80.9783 107.564 83.3468 106.784 85.4891L98.3725 108.6Z" fill="#FF4D30"/>
<path opacity="0.1" d="M92.9417 111.453L78.2359 106.1C76.0938 105.321 74.9892 102.952 75.7689 100.81L73.7926 106.24C73.0128 108.382 74.1176 110.751 76.2595 111.53L90.9653 116.883C93.1072 117.662 95.4759 116.558 96.2557 114.416L98.232 108.986C97.4522 111.128 95.0836 112.232 92.9417 111.453Z" fill="#231F20"/>
<path d="M119.449 127.249C119.101 128.207 118.042 128.7 117.085 128.352L68.6803 110.734C67.7232 110.385 67.2297 109.327 67.578 108.37C67.9264 107.413 68.9848 106.919 69.9419 107.268L118.347 124.886C119.304 125.234 119.797 126.293 119.449 127.249Z" fill="#3A5D74"/>
<path d="M149.476 138.179C149.127 139.136 148.069 139.63 147.112 139.281L120.108 129.453C119.151 129.104 118.657 128.046 119.006 127.089C119.354 126.132 120.413 125.638 121.37 125.987L148.373 135.815C149.33 136.164 149.824 137.222 149.476 138.179Z" fill="#3A5D74"/>
<path d="M107.785 143.819C105.738 145.024 103.104 144.342 101.899 142.296C101.781 142.097 101.688 141.89 101.605 141.682C100.932 141.862 100.525 142.049 100.525 142.049C98.4012 142.972 96.6446 144.73 95.7901 147.077L89.1407 165.346C88.3489 167.522 88.4761 169.807 89.3204 171.779C90.1039 171.165 91.1014 170.816 92.1739 170.867C94.5458 170.981 96.3763 172.995 96.2633 175.367C96.2328 176.003 96.2192 176.625 96.2203 177.233L116.679 184.68L129.313 149.969L110.406 143.087L109.501 142.758C108.948 143.117 108.376 143.471 107.785 143.819Z" fill="#90C8EC"/>
<path d="M107.313 156.741L103.784 166.437C103.436 167.395 102.378 167.888 101.421 167.54C100.463 167.191 99.9699 166.133 100.318 165.176L103.847 155.48C104.196 154.522 105.254 154.029 106.211 154.377C107.168 154.726 107.662 155.784 107.313 156.741Z" fill="#578CAD"/>
<path d="M114.747 159.447L111.218 169.143C110.87 170.1 109.811 170.594 108.854 170.245C107.897 169.897 107.404 168.839 107.752 167.882L111.281 158.185C111.629 157.228 112.688 156.735 113.645 157.083C114.602 157.432 115.095 158.49 114.747 159.447Z" fill="#578CAD"/>
<path d="M92.925 156.38C98.2957 141.624 90.6876 125.309 75.9319 119.938C61.1762 114.567 44.8606 122.175 39.49 136.931C34.1194 151.687 41.7275 168.002 56.4831 173.373C71.2388 178.744 87.5544 171.136 92.925 156.38Z" fill="#90C8EC"/>
<path d="M77.7051 130.953C79.8472 131.732 80.9514 134.101 80.1718 136.243L70.2118 163.608C69.4322 165.75 67.064 166.854 64.9217 166.075L54.7945 162.389C52.6526 161.609 51.5481 159.24 52.3277 157.098L62.2878 129.733C63.0675 127.591 65.4363 126.487 67.578 127.266L77.7051 130.953Z" fill="#CAE9F7"/>
<path opacity="0.1" d="M95.6569 172.955C96.0783 173.658 96.3049 174.488 96.263 175.367C96.2325 176.003 96.2189 176.625 96.2201 177.233L116.679 184.68L117.988 181.082L97.5294 173.636L95.657 172.954L95.6569 172.955Z" fill="#231F20"/>
<path opacity="0.1" d="M57.7939 169.777C43.6421 164.626 36.0667 149.408 40.2068 135.154C39.9509 135.734 39.7106 136.326 39.4905 136.93C34.1197 151.687 41.7278 168.003 56.4846 173.374C71.2405 178.745 87.557 171.137 92.9279 156.38C93.1481 155.775 93.344 155.168 93.521 154.559C87.5298 168.14 71.9455 174.927 57.7939 169.777Z" fill="#231F20"/>
<path opacity="0.1" d="M66.231 162.477L56.1038 158.791C53.9619 158.012 52.8575 155.643 53.6371 153.501L52.3277 157.098C51.5481 159.241 52.6528 161.609 54.7945 162.389L64.9217 166.075C67.0638 166.854 69.4322 165.75 70.2118 163.608L71.5212 160.01C70.7413 162.152 68.3731 163.257 66.231 162.477Z" fill="#231F20"/>
<path d="M103.375 194.468C102.563 196.7 100.096 197.85 97.8645 197.038C91.0328 194.552 87.286 186.124 87.8422 174.494C87.9554 172.123 89.9699 170.292 92.3419 170.405C94.7138 170.519 96.5443 172.533 96.4313 174.905C96.0808 182.231 97.8389 187.878 100.806 188.958C103.037 189.77 104.187 192.237 103.375 194.468Z" fill="#578CAD"/>
<path d="M115.188 121.458C112.859 121.922 111.347 124.185 111.81 126.514C112.386 129.406 109.027 133.472 103.253 136.872C101.207 138.076 100.525 140.711 101.73 142.758C102.935 144.804 105.569 145.486 107.616 144.281C117 138.756 121.602 131.668 120.244 124.836C119.78 122.508 117.517 120.995 115.188 121.458Z" fill="#578CAD"/>
</svg>
