<svg
							width="260"
							height="260"
							viewBox="0 0 260 260"
							fill="none"
							xmlns="http://www.w3.org/2000/svg"
						>
							<path
								d="M160.103 229.08C214.973 212.305 245.856 154.224 229.08 99.3528C212.304 44.4819 154.223 13.5997 99.3524 30.3754C44.4816 47.1511 13.5994 105.232 30.3751 160.103C47.1508 214.974 105.232 245.856 160.103 229.08Z"
								fill="#CD2D55"
							/>
							<path
								d="M160.104 229.081C149.806 195.399 109.788 64.5049 99.3535 30.3755C125.891 22.2621 154.001 24.9685 178.503 37.9971C203.005 51.025 220.968 72.8149 229.082 99.3531C237.195 125.891 234.489 154 221.46 178.503C208.433 203.005 186.642 220.967 160.104 229.081Z"
								fill="#BF1641"
							/>
							<path
								d="M98.8009 112.927L218.811 76.2357C215.492 70.6979 211.696 65.5398 207.492 60.8028L93.5184 95.6481C88.7467 97.1069 86.0614 102.157 87.5203 106.929C88.9791 111.701 94.0297 114.385 98.8009 112.927Z"
								fill="#96082C"
							/>
							<path
								d="M156.125 183.637C151.353 185.096 148.668 190.146 150.127 194.918C151.586 199.69 156.636 202.375 161.408 200.916L218.673 183.408C222.83 176.514 226.185 169.147 228.657 161.462L156.125 183.637L156.125 183.637Z"
								fill="#96082C"
							/>
							<path
								d="M117.328 159.788C112.556 161.247 109.871 166.297 111.33 171.069C112.789 175.84 117.839 178.526 122.611 177.067L232.738 143.398C233.575 137.119 233.839 130.72 233.494 124.273L117.328 159.788L117.328 159.788Z"
								fill="#96082C"
							/>
							<path
								d="M125.313 69.1108L194.01 48.1079C187.664 43.1194 180.765 38.8871 173.464 35.4958L120.03 51.8323C115.258 53.2911 112.573 58.3414 114.032 63.1131C115.491 67.8848 120.541 70.5697 125.313 69.1108Z"
								fill="#96082C"
							/>
							<path
								d="M134.001 128.428C135.46 133.199 140.51 135.885 145.282 134.426L231.346 108.114C230.72 105.189 229.972 102.267 229.081 99.3541C228.192 96.4445 227.179 93.6062 226.064 90.8344L139.999 117.147C135.227 118.606 132.542 123.656 134.001 128.428Z"
								fill="#96082C"
							/>
							<path
								d="M93.5164 95.6476C88.7447 97.1064 86.0595 102.157 87.5183 106.928C88.9771 111.7 94.0274 114.385 98.7991 112.927L122.386 105.715L117.103 88.4368L93.5165 95.648L93.5164 95.6476Z"
								fill="#A91036"
							/>
							<path
								d="M117.327 159.788C112.555 161.247 109.87 166.297 111.329 171.069C112.788 175.84 117.838 178.526 122.61 177.067L142.355 171.03L137.072 153.752L117.327 159.788L117.327 159.788Z"
								fill="#A91036"
							/>
						</svg>