						<svg
							width="164"
							height="164"
							viewBox="0 0 164 164"
							fill="none"
							xmlns="http://www.w3.org/2000/svg"
						>
							<path
								d="M100.728 144.324C135.173 133.793 154.559 97.3332 144.028 62.8881C133.497 28.4429 97.0372 9.05665 62.592 19.5876C28.1469 30.1185 8.76064 66.5788 19.2916 101.024C29.8225 135.469 66.2828 154.855 100.728 144.324Z"
								fill="#E8AC20"
							/>
							<path
								d="M62.5918 19.5876C97.0371 9.05665 133.498 28.4436 144.029 62.8887C154.56 97.3338 135.173 133.794 100.728 144.325C91.0252 112.589 75.7023 62.4702 62.5918 19.5876Z"
								fill="#D89210"
							/>
							<path
								d="M130.89 39.159C101.31 47.7188 85.0903 46.4158 70.3355 44.9173C57.3112 43.5948 45.4279 42.1196 26.504 47.1433C25.6493 48.5006 24.8364 49.8979 24.0714 51.337C17.8446 63.0478 15.5523 75.8005 16.7233 88.0847C35.0666 86.8483 60.9776 95.4411 84.1001 90.1448C84.1198 90.1404 84.1395 90.1351 84.1591 90.1305C104.906 85.3495 122.401 66.1034 141.936 57.0476C139.269 50.5829 135.556 44.5291 130.89 39.159Z"
								fill="#F5C042"
							/>
							<path
								d="M103.729 108.705C99.1686 110.099 95.0271 111.626 91.2226 113.237C71.4574 121.603 60.8462 132.22 48.5799 138.163C49.3866 138.637 50.2038 139.1 51.0379 139.543C66.9405 147.999 84.7652 149.207 100.728 144.327C116.689 139.446 130.789 128.477 139.244 112.576C139.946 111.256 140.593 109.921 141.196 108.577C134.686 105.9 122.168 103.067 103.729 108.705Z"
								fill="#F5C042"
							/>
							<path
								d="M84.1593 90.1307C104.906 85.3497 122.401 66.1036 141.936 57.0478C139.269 50.5832 135.557 44.5295 130.891 39.1591C101.31 47.7189 85.0907 46.4159 70.3359 44.9174L84.1591 90.1307L84.1593 90.1307Z"
								fill="#E2A91F"
							/>
							<path
								d="M91.2225 113.237L100.728 144.327C116.689 139.447 130.789 128.478 139.244 112.576C139.946 111.256 140.593 109.921 141.196 108.577C134.686 105.901 122.168 103.068 103.729 108.705C99.1686 110.099 95.0268 111.627 91.2225 113.237Z"
								fill="#E2A91F"
							/>
						</svg>