<svg width="228" height="184" viewBox="0 0 228 184" fill="none" xmlns="http://www.w3.org/2000/svg">
<path d="M100.729 164.324C135.174 153.793 154.56 117.333 144.029 82.8881C133.498 48.4429 97.0381 29.0566 62.593 39.5876C28.1479 50.1185 8.76162 86.5788 19.2925 121.024C29.8235 155.469 66.2838 174.855 100.729 164.324Z" fill="#E8AC20"/>
<path d="M62.5938 39.5876C97.0391 29.0567 133.5 48.4436 144.031 82.8887C154.562 117.334 135.175 153.794 100.73 164.325C91.0271 132.589 75.7043 82.4702 62.5938 39.5876Z" fill="#D89210"/>
<path d="M130.891 59.159C101.311 67.7188 85.0912 66.4158 70.3365 64.9173C57.3121 63.5948 45.4289 62.1196 26.505 67.1433C25.6503 68.5006 24.8374 69.8979 24.0724 71.337C17.8456 83.0478 15.5533 95.8005 16.7243 108.085C35.0675 106.848 60.9786 115.441 84.1011 110.145C84.1208 110.14 84.1405 110.135 84.1601 110.13C104.907 105.35 122.402 86.1034 141.937 77.0476C139.27 70.5829 135.557 64.5291 130.891 59.159Z" fill="#F5C042"/>
<path d="M103.73 128.705C99.1696 130.099 95.0281 131.626 91.2236 133.237C71.4584 141.603 60.8472 152.22 48.5809 158.163C49.3875 158.637 50.2048 159.1 51.0388 159.543C66.9415 167.999 84.7662 169.207 100.729 164.327C116.69 159.446 130.79 148.477 139.245 132.576C139.947 131.256 140.594 129.921 141.197 128.577C134.687 125.9 122.169 123.067 103.73 128.705Z" fill="#F5C042"/>
<path d="M84.1593 110.131C104.906 105.35 122.401 86.1036 141.936 77.0478C139.269 70.5832 135.557 64.5295 130.891 59.1591C101.31 67.7189 85.0907 66.4159 70.3359 64.9174L84.1591 110.131L84.1593 110.131Z" fill="#E2A91F"/>
<path d="M91.2235 133.237L100.729 164.327C116.69 159.447 130.79 148.478 139.245 132.576C139.947 131.256 140.594 129.921 141.197 128.577C134.687 125.901 122.169 123.068 103.73 128.705C99.1696 130.099 95.0278 131.627 91.2235 133.237Z" fill="#E2A91F"/>
<path d="M157.374 110.155L157.179 106.43C157.168 106.216 157.131 106.01 157.075 105.812L143.83 106.506L144.111 111.86C144.163 112.851 145.008 113.612 145.998 113.56L154.72 113.103C156.267 113.022 157.455 111.702 157.374 110.155Z" fill="#578CAD"/>
<path d="M155.848 81.0236L155.653 77.2985C155.572 75.7523 154.253 74.5643 152.706 74.6446L143.983 75.1018C142.993 75.1537 142.232 75.9988 142.284 76.9896L142.564 82.344L155.809 81.6499C155.844 81.447 155.859 81.2378 155.848 81.0236Z" fill="#578CAD"/>
<path d="M167.88 93.1317C167.848 92.5124 168.324 91.9844 168.943 91.952L202.68 90.1839C203.299 90.1514 203.827 90.627 203.86 91.2462C203.892 91.8655 203.416 92.3935 202.797 92.426L169.06 94.194C168.441 94.2266 167.913 93.7511 167.88 93.1317Z" fill="#CAE9F7"/>
<path d="M178.536 108.801C176.989 108.882 175.67 107.693 175.588 106.147L174.186 79.3828C174.105 77.8355 175.293 76.5162 176.84 76.4351L194.267 75.5218C195.814 75.4407 197.134 76.6287 197.215 78.1759L198.618 104.94C198.699 106.487 197.511 107.806 195.964 107.887L178.536 108.801Z" fill="#90C8EC"/>
<path d="M143.408 98.4865L143.844 106.806L165.484 105.672C168.242 105.527 170.36 103.174 170.216 100.416L169.441 85.6433C169.297 82.8852 166.944 80.7667 164.186 80.9112L142.547 82.0453L143.409 98.4865" fill="#90C8EC"/>
<path d="M151.539 93.909C151.708 97.132 154.457 99.6078 157.68 99.4389C160.903 99.27 163.379 96.5203 163.21 93.2974C163.041 90.0744 160.292 87.5986 157.069 87.7675C153.846 87.9364 151.37 90.6861 151.539 93.909Z" fill="#578CAD"/>
<path d="M202.74 91.3043C202.869 93.7535 204.958 95.6349 207.407 95.5065C209.856 95.3782 211.738 93.2887 211.609 90.8395C211.481 88.3903 209.392 86.509 206.942 86.6373C204.493 86.7657 202.612 88.8552 202.74 91.3043Z" fill="#578CAD"/>
<path d="M192.437 75.6659C192.147 71.9516 188.947 69.1249 185.205 69.3211C181.463 69.5172 178.576 72.663 178.676 76.3871L192.437 75.6659Z" fill="#578CAD"/>
<path opacity="0.1" d="M144.112 77.5551L152.835 77.098C154.381 77.0177 155.7 78.2058 155.781 79.7519L155.653 77.2985C155.572 75.7523 154.253 74.5643 152.706 74.6446L143.983 75.1018C142.993 75.1537 142.232 75.9988 142.284 76.9896L142.412 79.4429C142.36 78.4522 143.121 77.607 144.112 77.5551Z" fill="#231F20"/>
<path opacity="0.1" d="M176.968 78.888L194.396 77.9746C195.943 77.8936 197.263 79.0816 197.344 80.6287L197.215 78.1754C197.134 76.6281 195.814 75.4402 194.267 75.5213L176.84 76.4346C175.293 76.5157 174.105 77.8351 174.186 79.3823L174.314 81.8356C174.233 80.2885 175.422 78.969 176.968 78.888Z" fill="#231F20"/>
<path opacity="0.1" d="M169.572 88.0964L169.443 85.6431C169.299 82.885 166.946 80.7665 164.188 80.911L142.549 82.0451L142.677 84.4984L164.317 83.3643C167.074 83.2198 169.427 85.3383 169.572 88.0964Z" fill="#231F20"/>
<path opacity="0.1" d="M157.196 90.2219C159.997 90.0751 162.441 91.9277 163.142 94.5315C163.206 94.1316 163.23 93.7188 163.208 93.2981C163.039 90.0754 160.29 87.5997 157.067 87.7686C153.844 87.9375 151.369 90.6871 151.538 93.9097C151.56 94.3305 151.627 94.7384 151.732 95.1295C152.158 92.4665 154.394 90.3687 157.196 90.2219Z" fill="#231F20"/>
<path opacity="0.1" d="M207.071 89.0911C209.094 88.9851 210.871 90.2514 211.5 92.0758C211.592 91.6802 211.632 91.2657 211.609 90.84C211.481 88.3907 209.391 86.5095 206.942 86.6378C204.493 86.7662 202.612 88.8555 202.74 91.3048C202.762 91.7305 202.845 92.1386 202.977 92.5223C203.413 90.6423 205.047 89.1972 207.071 89.0911Z" fill="#231F20"/>
<path opacity="0.1" d="M185.334 71.7743C188.189 71.6247 190.777 72.9493 192.366 75.0805C191.803 71.6595 188.749 69.1354 185.206 69.3211C181.663 69.5067 178.889 72.3364 178.687 75.7975C180.045 73.5118 182.48 71.9238 185.334 71.7743Z" fill="#231F20"/>
<path d="M194.131 107.976C194.23 111.7 191.344 114.846 187.601 115.042C183.859 115.238 180.66 112.411 180.369 108.697L194.131 107.976Z" fill="#578CAD"/>
<path d="M191.272 95.5463C193.632 95.5463 195.545 93.6334 195.545 91.2739C195.545 88.9143 193.632 87.0015 191.272 87.0015C188.913 87.0015 187 88.9143 187 91.2739C187 93.6334 188.913 95.5463 191.272 95.5463Z" fill="#EE7F9B"/>
<path opacity="0.1" d="M190.032 91.2724C190.032 89.4472 191.177 87.8904 192.788 87.2783C192.316 87.0991 191.805 87 191.271 87C188.911 87 186.998 88.9129 186.998 91.2726C186.998 93.6322 188.911 95.5453 191.271 95.5453C191.805 95.5453 192.316 95.4464 192.788 95.267C191.177 94.6546 190.032 93.0976 190.032 91.2724Z" fill="#231F20"/>
<path d="M180.328 92.5014C180.234 90.7061 181.314 89.0917 182.954 88.5755C183.371 88.4442 183.812 88.6924 183.94 89.1295C184.067 89.5669 183.832 90.0278 183.415 90.1591C182.472 90.456 181.851 91.3853 181.905 92.4188C181.959 93.4477 182.67 94.3062 183.634 94.5067C184.062 94.5958 184.342 95.0309 184.259 95.4788C184.176 95.9266 183.761 96.2174 183.333 96.1284C181.658 95.7799 180.422 94.2884 180.328 92.5014Z" fill="#CAE9F7"/>
</svg>
