<svg width="258" height="258" viewBox="0 0 258 258" fill="none" xmlns="http://www.w3.org/2000/svg">
<path d="M209.705 48.2944C201.576 40.1659 188.35 40.1659 180.222 48.2944L194.963 63.0357L209.705 77.7775C217.834 69.6495 217.834 56.4229 209.705 48.2944Z" fill="#B7B9C0"/>
<path d="M209.705 48.2944L194.963 63.0362L209.705 77.778C217.834 69.6495 217.834 56.4229 209.705 48.2944Z" fill="#9B9DA6"/>
<path d="M163.51 139.305L174.739 150.534L178.587 146.687L167.357 135.457L163.51 139.305Z" fill="#9B9DA6"/>
<path d="M137.22 165.593L148.449 176.822L152.297 172.975L141.067 161.745L137.22 165.593Z" fill="#9B9DA6"/>
<path d="M138.543 186.719L205.975 254.15L254.148 205.977L186.716 138.545L138.543 186.719Z" fill="#E07934"/>
<path d="M107.469 83.2705L118.698 94.5L122.546 90.6526L111.316 79.423L107.469 83.2705Z" fill="#B7B9C0"/>
<path d="M81.1797 109.559L92.4092 120.789L96.2566 116.941L85.0271 105.712L81.1797 109.559Z" fill="#B7B9C0"/>
<path d="M119.455 71.2783L52.0234 3.84662L3.8501 52.02L71.2817 119.452L119.455 71.2783Z" fill="#E07934"/>
<path d="M198.783 59.2176L170.631 31.0654L166.852 34.8447C151.328 50.368 151.328 75.6263 166.852 91.1491C182.375 106.672 207.633 106.672 223.156 91.1491L226.935 87.3698L198.783 59.2176Z" fill="#EDEEF0"/>
<path d="M198.783 59.2176L166.852 91.1491C182.375 106.672 207.633 106.672 223.156 91.1491L226.935 87.3698L198.783 59.2176Z" fill="#DCDEE2"/>
<path d="M185.565 101.917L170.824 87.1753L156.082 72.434L139.442 73.7543L73.7538 139.442L72.4336 156.083L87.1754 170.825L101.917 185.566L118.557 184.246L184.246 118.558L185.565 101.917Z" fill="#D8D9DD"/>
<path d="M96.1559 161.844L87.1758 170.825L101.917 185.566L118.558 184.246L184.246 118.558L185.566 101.917L170.825 87.1753L161.844 96.1559L96.1559 161.844Z" fill="#B7B9C0"/>
<path d="M52.0207 -0.000183105L0 52.0205L71.2825 123.303L123.303 71.2823L52.0207 -0.000183105ZM95.3687 91.5207L65.4992 61.6512L85.738 41.4123L115.608 71.2818L95.3687 91.5207ZM81.8902 37.565L61.6513 57.8038L31.7818 27.9343L52.0207 7.69546L81.8902 37.565ZM27.934 31.7822L57.8035 61.6517L37.5652 81.8905L7.69565 52.0205L27.934 31.7822ZM41.413 85.7373L61.6513 65.4985L91.5209 95.368L71.282 115.607L41.413 85.7373Z" fill="#EDEEF0"/>
<path d="M258 205.98L186.717 134.697L134.697 186.718L205.98 258L258 205.98ZM230.066 226.218L200.196 196.348L220.435 176.11L250.304 205.98L230.066 226.218ZM216.587 172.263L196.349 192.501L166.48 162.632L186.718 142.393L216.587 172.263ZM162.631 166.479L192.501 196.348L172.262 216.587L142.392 186.717L162.631 166.479ZM176.11 220.435L196.349 200.196L226.218 230.066L205.98 250.305L176.11 220.435Z" fill="#DCDEE2"/>
<path d="M161.845 96.1559L139.443 73.7543L73.7549 139.442L96.1565 161.845L118.558 184.246L184.247 118.558L161.845 96.1559Z" fill="#EDEEF0"/>
<path d="M96.1555 161.847L118.555 184.246L184.241 118.559L161.842 96.1601L96.1555 161.847Z" fill="#DCDEE2"/>
</svg>
