<svg width="476" height="229" viewBox="0 0 476 229" fill="none" xmlns="http://www.w3.org/2000/svg">
<path fill-rule="evenodd" clip-rule="evenodd" d="M33.2867 85.4705C32.7536 94.1773 34.6407 102.639 38.6315 110.679C15.8721 120.944 1.09897 135.973 0.0584412 152.968C-1.92325 185.334 46.6562 212.572 108.564 213.805C131.733 214.266 153.486 211.02 171.741 205.079C183.468 218.299 207.845 227.636 236.541 228.207C277.813 229.029 312.39 211.408 313.771 188.85C313.862 187.368 313.807 185.901 313.613 184.454C322.664 187.777 333.788 189.841 345.908 190.083C377.435 190.711 403.755 178.763 404.696 163.397C404.802 161.665 404.581 159.963 404.06 158.306C452.887 152.337 489.882 129.85 491.569 102.303C492.936 79.9782 470.763 60.046 436.77 49.0876C429.418 23.5541 392.087 3.71355 345.943 2.79451C324.954 2.37646 305.304 5.93646 289.135 12.3118C265.5 5.04862 238.2 0.648711 208.939 0.0659301C114.932 -1.80642 36.2893 36.4305 33.2867 85.4705Z" fill="url(#paint0_linear)" fill-opacity="0.05"/>
<defs>
<linearGradient id="paint0_linear" x1="269.507" y1="254.701" x2="154.596" y2="-208.498" gradientUnits="userSpaceOnUse">
<stop stop-color="white"/>
<stop offset="1" stop-color="white" stop-opacity="0"/>
</linearGradient>
</defs>
</svg>
