<svg width="466" height="243" viewBox="0 0 466 243" fill="none" xmlns="http://www.w3.org/2000/svg">
<path fill-rule="evenodd" clip-rule="evenodd" d="M145.003 0.219727C102.448 0.219727 66.9327 25.177 58.6418 58.3789C53.524 57.6129 48.2382 57.2117 42.8314 57.2117C-2.90427 57.2117 -39.9803 85.9174 -39.9803 121.328C-39.9803 121.577 -39.9785 121.826 -39.9748 122.075C-65.6171 132.972 -82.9992 154.074 -82.9992 178.32C-82.9992 213.452 -46.503 241.985 -1.263 242.43V242.436H-0.269104C-0.241882 242.436 -0.214661 242.436 -0.187439 242.436C-0.160217 242.436 -0.132996 242.436 -0.105774 242.436H426.777V242.423C427.134 242.432 427.493 242.436 427.852 242.436C448.641 242.436 465.494 228.482 465.494 211.268C465.494 194.055 448.641 180.101 427.852 180.101C425.9 180.101 423.982 180.224 422.11 180.461C422.35 178.587 422.473 176.684 422.473 174.758C422.473 145.249 393.583 121.328 357.945 121.328C352.603 121.328 347.413 121.865 342.449 122.878C337.995 86.0035 300.409 57.2117 254.701 57.2117C246.738 57.2117 239.022 58.0855 231.684 59.7237C224.028 25.8533 188.131 0.219727 145.003 0.219727ZM296.941 194.349H297.892C297.835 194.23 297.779 194.11 297.723 193.991C297.463 194.111 297.202 194.23 296.941 194.349Z" fill="white" fill-opacity="0.05"/>
</svg>
