<svg width="328" height="166" viewBox="0 0 328 166" fill="none" xmlns="http://www.w3.org/2000/svg">
<path fill-rule="evenodd" clip-rule="evenodd" d="M295.29 165.517H40.5911H40.5897C18.3453 165.517 0.312897 147.749 0.312897 125.832C0.312897 103.914 18.346 86.1457 40.5911 86.1457C41.7061 86.1457 42.8106 86.1904 43.9027 86.2779C48.2193 62.5379 66.8419 44.6829 89.161 44.6829C91.389 44.6829 93.5803 44.8609 95.7241 45.2048C109.934 19.2574 145.661 0.85083 187.486 0.85083C226.287 0.85083 259.838 16.6911 275.833 39.6971C283.144 36.7979 291.106 35.2057 299.436 35.2057C335.094 35.2057 364 64.377 364 100.362C364 136.346 335.094 165.517 299.436 165.517C298.044 165.517 296.661 165.473 295.29 165.385V165.517Z" fill="white" fill-opacity="0.05"/>
</svg>
