<svg width="349" height="332" viewBox="0 0 349 332" fill="none" xmlns="http://www.w3.org/2000/svg">
<path fill-rule="evenodd" clip-rule="evenodd" d="M86.2966 249.746C81.7545 242.547 78.498 234.876 76.4616 226.97C60.4528 224.697 45.9428 216.159 37.0766 202.107C20.1917 175.346 30.17 138.719 59.3639 120.299C70.2903 113.405 82.3598 110.039 94.0715 109.928C93.2099 95.4784 100.349 80.7547 113.881 72.2165C133.343 59.9366 158.661 65.1018 170.429 83.7535C171.203 84.9793 171.898 86.2328 172.518 87.5087C175.238 82.1627 179.578 77.2967 185.293 73.6905C200.16 64.3099 218.711 67.0047 226.727 79.7095C227.631 81.1418 228.362 82.6402 228.927 84.185C255.369 75.5153 284.246 84.1091 298.617 106.885C310.263 125.344 309.4 148.392 298.43 167.184C307.459 190.798 299.254 218.023 277.494 231.753C267.597 237.998 256.386 240.509 245.465 239.668C237.662 252.433 226.687 263.811 212.888 272.517C168.557 300.488 111.88 290.293 86.2966 249.746Z" fill="white" fill-opacity="0.05"/>
</svg>
