<svg width="63" height="162" viewBox="0 0 63 162" fill="none" xmlns="http://www.w3.org/2000/svg">
<path fill-rule="evenodd" clip-rule="evenodd" d="M-225.868 161.753C-227.207 161.839 -228.558 161.883 -229.919 161.883C-264.758 161.883 -293 133.381 -293 98.2225C-293 63.064 -264.758 34.5625 -229.919 34.5625C-221.78 34.5625 -214.001 36.118 -206.858 38.9505C-191.23 16.4728 -158.449 0.996254 -120.539 0.996254C-79.6735 0.996254 -44.7674 18.9804 -30.8835 44.3321C-28.7887 43.996 -26.6476 43.8221 -24.4704 43.8221C-2.66376 43.8221 15.5314 61.2672 19.7488 84.4623C20.8162 84.3767 21.8955 84.333 22.9852 84.333C44.7195 84.333 62.3387 101.693 62.3387 123.108C62.3387 144.522 44.7195 161.883 22.9852 161.883H-225.868V161.753Z" fill="white" fill-opacity="0.05"/>
</svg>
