<svg width="537" height="238" viewBox="0 0 537 238" fill="none" xmlns="http://www.w3.org/2000/svg">
<path fill-rule="evenodd" clip-rule="evenodd" d="M313.443 0.544983C355.021 0.544983 389.721 24.9293 397.822 57.3689C402.822 56.6205 407.986 56.2286 413.269 56.2286C457.954 56.2286 494.179 84.2753 494.179 118.873C494.179 119.117 494.178 119.36 494.174 119.603C519.227 130.25 536.209 150.868 536.209 174.556C536.209 208.882 500.551 236.76 456.35 237.195V237.2H455.299H38.1361V237.188C37.7873 237.196 37.4373 237.2 37.0862 237.2C16.7745 237.2 0.308594 223.567 0.308594 206.748C0.308594 189.93 16.7745 176.296 37.0862 176.296C38.9935 176.296 40.8669 176.417 42.6959 176.648C42.4613 174.818 42.3409 172.959 42.3409 171.076C42.3409 142.245 70.5682 118.873 105.388 118.873C110.608 118.873 115.679 119.398 120.53 120.388C124.881 84.3596 161.605 56.2286 206.263 56.2286C214.043 56.2286 221.582 57.0824 228.752 58.683C236.232 25.5901 271.305 0.544983 313.443 0.544983ZM164.993 190.217H164.063L164.124 190.087C164.159 190.014 164.193 189.94 164.228 189.867C164.482 189.985 164.737 190.101 164.993 190.217Z" fill="white" fill-opacity="0.05"/>
</svg>
