<svg width="383" height="164" viewBox="0 0 383 164" fill="none" xmlns="http://www.w3.org/2000/svg">
<path fill-rule="evenodd" clip-rule="evenodd" d="M159.768 0.227091C130.133 0.227091 105.401 17.0432 99.6279 39.4143C96.063 38.8979 92.3812 38.6274 88.615 38.6274C56.7657 38.6274 30.9467 57.9689 30.9467 81.8277C30.9467 81.996 30.948 82.1641 30.9506 82.3319C13.0947 89.6741 0.990845 103.892 0.990845 120.228C0.990845 143.9 26.4076 163.126 57.9131 163.425V163.428H58.5042C58.5558 163.428 58.6074 163.428 58.6591 163.428C58.7108 163.428 58.7624 163.428 58.814 163.428H355.991V163.42C356.239 163.426 356.488 163.428 356.738 163.428C371.215 163.428 382.951 154.026 382.951 142.428C382.951 130.83 371.215 121.428 356.738 121.428C355.379 121.428 354.044 121.511 352.74 121.671C352.907 120.408 352.993 119.126 352.993 117.828C352.993 97.9455 332.874 81.8277 308.057 81.8277C304.338 81.8277 300.724 82.1897 297.268 82.872C294.166 58.0266 267.992 38.6274 236.162 38.6274C230.616 38.6274 225.242 39.2164 220.131 40.3206C214.8 17.4989 189.802 0.227091 159.768 0.227091ZM265.577 131.028H266.237L266.209 130.97L266.174 130.9L266.12 130.787C265.94 130.868 265.759 130.949 265.577 131.028Z" fill="white" fill-opacity="0.02"/>
</svg>
