<svg width="446" height="205" viewBox="0 0 446 205" fill="none" xmlns="http://www.w3.org/2000/svg">
<path fill-rule="evenodd" clip-rule="evenodd" d="M185.411 0.453857C150.838 0.453857 121.983 21.4438 115.248 49.3678C111.089 48.7234 106.794 48.3859 102.401 48.3859C65.2436 48.3859 35.1213 72.5285 35.1213 102.31C35.1213 102.52 35.1228 102.73 35.1258 102.939C14.2933 112.104 0.171631 129.851 0.171631 150.242C0.171631 179.791 29.8239 203.788 66.5798 204.162V204.166H67.2227C67.299 204.166 67.3752 204.166 67.4515 204.166C67.5278 204.166 67.6041 204.166 67.6803 204.166H414.338V204.156C414.628 204.163 414.919 204.166 415.211 204.166C432.101 204.166 445.793 192.431 445.793 177.953C445.793 163.476 432.101 151.741 415.211 151.741C413.626 151.741 412.068 151.844 410.548 152.043C410.743 150.467 410.843 148.867 410.843 147.246C410.843 122.429 387.371 102.31 358.417 102.31C354.077 102.31 349.86 102.762 345.827 103.614C342.209 72.601 311.672 48.3859 274.538 48.3859C268.067 48.3859 261.797 49.1211 255.835 50.4993C249.615 22.0128 220.45 0.453857 185.411 0.453857ZM308.855 163.723H309.628C309.604 163.671 309.58 163.619 309.556 163.567C309.534 163.519 309.512 163.47 309.49 163.422C309.279 163.523 309.067 163.624 308.855 163.723Z" fill="white" fill-opacity="0.05"/>
</svg>
