<svg width="137" height="284" viewBox="0 0 137 284" fill="none" xmlns="http://www.w3.org/2000/svg">
<g filter="url(#filter0_d)">
<path d="M18.9155 211.413C11.9665 202.679 20.821 195.024 29.0319 191.992C32.3681 192.671 34.8417 195.283 38.3915 196.005C42.8663 196.916 47.1572 196.936 51.6092 196.079C56.1871 195.199 61.3204 197.255 65.7656 198.088C70.1246 198.904 75.1042 197.887 78.8563 200.751C86.4442 206.544 81.9449 219.551 80.2526 227.282C78.3174 236.122 72.0991 242.012 65.4588 247.177C61.6041 250.175 56.429 254.692 51.5421 254.466C46.2284 254.221 40.5678 252.743 35.5107 255.563C32.949 256.992 30.3837 258.851 27.9171 260.735C26.9369 262.351 25.6263 263.787 24.2761 264.948C22.6092 266.381 23.0239 264.517 24.0862 263.699C25.3252 262.744 26.6072 261.736 27.9171 260.735C28.4253 259.898 28.8447 259.012 29.1347 258.091C31.6355 250.152 33.0859 241.022 34.3334 232.757C35.8268 222.863 23.8244 217.582 18.9155 211.413Z" fill="url(#paint0_radial)"/>
<path d="M81.9108 205.336L26.0485 193.97L46.1369 156.507L78.0574 163.001L81.9108 205.336Z" fill="#434A54"/>
<path d="M122.747 63.1095L108.164 21.5137C105.907 14.8942 100.298 9.61365 92.9444 8.11764C85.5969 6.62277 78.3763 9.29296 73.7064 14.5032L44.0239 47.0931C43.5649 47.6144 43.2268 48.2578 43.0781 48.9884L20.5722 159.608L100.376 175.845L122.882 65.2247C123.031 64.4942 122.972 63.7699 122.747 63.1095Z" fill="#E6E9ED"/>
<path d="M121.482 72.1047L122.882 65.2248C122.959 64.8447 122.983 64.4599 122.949 64.088L43.4606 47.9159C43.2897 48.2466 43.1552 48.6088 43.078 48.9885L41.6782 55.8684L65.6201 60.7394L60.7491 84.6813L36.8072 79.8102L35.1852 87.7829L114.989 104.019L116.611 96.0466L68.7277 86.3045L73.5987 62.3627L121.482 72.1047Z" fill="#CCD1D9"/>
<path d="M32.0728 182.73L80.7514 192.634L79.9851 184.162L36.0937 175.233L32.0728 182.73Z" fill="#656D78"/>
<path d="M103.083 80.828C102.636 83.0258 100.489 84.4516 98.2858 84.0033C96.0824 83.555 94.6574 81.4025 95.1045 79.2047C95.554 76.9953 97.7065 75.5703 99.9103 76.0187C102.114 76.467 103.533 78.6186 103.083 80.828Z" fill="#ED5565"/>
<path d="M61.354 142.973L41.3984 138.913C39.2006 138.466 37.0482 139.891 36.5986 142.1C36.1515 144.298 37.5762 146.451 39.7739 146.898L59.7295 150.958C61.9332 151.406 64.0797 149.98 64.5268 147.782C64.9763 145.573 63.5581 143.422 61.354 142.973Z" fill="#434A54"/>
<path d="M64.602 127.016L44.6465 122.956C42.4487 122.509 40.2963 123.933 39.8491 126.131C39.3996 128.341 40.8242 130.493 43.022 130.941L62.9775 135.001C65.1813 135.449 67.3277 134.023 67.7773 131.813C68.2244 129.615 66.8061 127.464 64.602 127.016Z" fill="#434A54"/>
<path d="M46.2705 114.972L66.226 119.032C68.4298 119.48 70.5751 118.06 71.0234 115.856C71.4717 113.653 70.0515 111.507 67.8481 111.059L47.8926 106.999C45.6948 106.552 43.5435 107.971 43.0952 110.174C42.6469 112.378 44.0727 114.524 46.2705 114.972Z" fill="#434A54"/>
<circle cx="74.7792" cy="89.9485" r="27.4198" fill="#E6E9ED" stroke="#FF6464" stroke-width="10"/>
</g>
<defs>
<filter id="filter0_d" x="0.716797" y="0" width="136.132" height="283.122" filterUnits="userSpaceOnUse" color-interpolation-filters="sRGB">
<feFlood flood-opacity="0" result="BackgroundImageFix"/>
<feColorMatrix in="SourceAlpha" type="matrix" values="0 0 0 0 0 0 0 0 0 0 0 0 0 0 0 0 0 0 127 0"/>
<feOffset dy="4"/>
<feGaussianBlur stdDeviation="2"/>
<feColorMatrix type="matrix" values="0 0 0 0 0 0 0 0 0 0 0 0 0 0 0 0 0 0 0.25 0"/>
<feBlend mode="normal" in2="BackgroundImageFix" result="effect1_dropShadow"/>
<feBlend mode="normal" in="SourceGraphic" in2="effect1_dropShadow" result="shape"/>
</filter>
<radialGradient id="paint0_radial" cx="0" cy="0" r="1" gradientUnits="userSpaceOnUse" gradientTransform="translate(52.8074 194.663) rotate(108.56) scale(70.0983 62.8201)">
<stop stop-color="#FF9B63"/>
<stop offset="1" stop-color="#FFF500"/>
</radialGradient>
</defs>
</svg>
