<svg width="324" height="424" viewBox="0 0 324 424" fill="none" xmlns="http://www.w3.org/2000/svg">
<g clip-path="url(#clip0)">
<path d="M224.792 269.791C189.007 277.725 211.49 330.679 211.49 330.679L214.879 318.44L226.993 357.585L232.414 340.346L250.659 386.471L247.703 336.957L259.901 350.29L254.336 309.693L262.579 319.353C262.58 319.353 260.577 261.858 224.792 269.791Z" fill="#FFCD56"/>
<path d="M224.793 269.791L250.66 386.471L247.703 336.957L259.901 350.29L254.337 309.693L262.58 319.353C262.581 319.353 260.578 261.858 224.793 269.791Z" fill="#EEB733"/>
<path d="M178.862 233.486L135.454 281.582L125.181 235.24L168.588 187.144L178.862 233.486Z" fill="#CD2D55"/>
<path d="M251.079 217.475L310.746 242.72L300.473 196.378L240.806 171.134L251.079 217.475Z" fill="#B81A41"/>
<path d="M227.511 99.2839C208.187 61.9641 173.295 37.4842 173.294 37.4834C173.294 37.4834 152.015 74.4158 150.274 116.407C149.873 126.098 150.511 136.057 152.692 145.895C152.692 145.895 173.239 238.577 176.91 255.135C180.581 271.694 198.879 283.706 226.522 277.578C254.165 271.45 265.671 252.83 262.001 236.271C258.33 219.713 237.783 127.031 237.783 127.031C235.601 117.193 231.971 107.897 227.511 99.2839Z" fill="#EDEEF0"/>
<path d="M227.51 99.2839C208.186 61.9642 173.294 37.4842 173.293 37.4834L188.892 107.845L219.454 245.703L226.52 277.578C254.163 271.449 265.67 252.829 261.999 236.271C258.329 219.713 237.781 127.031 237.781 127.031C235.6 117.193 231.97 107.897 227.51 99.2839Z" fill="#DCDEE2"/>
<path d="M173.293 37.4837C173.293 37.4837 152.014 74.4162 150.273 116.407L188.891 107.845L227.51 99.284C208.186 61.9645 173.294 37.4845 173.293 37.4837Z" fill="#CD2D55"/>
<path d="M219.454 245.704L176.909 255.136C180.58 271.695 198.878 283.707 226.521 277.579C254.164 271.451 265.671 252.831 262 236.272L219.454 245.704Z" fill="#444242"/>
<path d="M261.998 236.272L219.453 245.704L226.519 277.579C254.162 271.451 265.669 252.83 261.998 236.272Z" fill="#3A3839"/>
<path d="M215.51 162.172C221.482 152.799 218.724 140.359 209.35 134.387C199.976 128.415 187.536 131.173 181.565 140.547C175.593 149.921 178.351 162.361 187.725 168.332C197.098 174.304 209.538 171.546 215.51 162.172Z" fill="#BCE8F7"/>
<path d="M209.4 200.356L212.755 264.443L236.799 323.944L236.799 323.945L233.444 259.857L209.4 200.356Z" fill="#CD2D55"/>
<path d="M233.444 259.857L209.4 200.356L236.799 323.944L236.799 323.945L233.444 259.857Z" fill="#B81A41"/>
<path d="M173.292 37.4829L188.891 107.845L227.509 99.2834C208.185 61.9639 173.293 37.484 173.292 37.4829Z" fill="#B81A41"/>
<path d="M218.185 147.005C215.78 136.154 205.033 129.308 194.182 131.713L202.894 171.008C213.744 168.603 220.591 157.856 218.185 147.005Z" fill="#8EC1D6"/>
</g>
<defs>
<clipPath id="clip0">
<rect width="252.763" height="252.763" fill="white" transform="translate(37.4824 250.662) rotate(-57.5)"/>
</clipPath>
</defs>
</svg>
