<svg width="1440" height="796" viewBox="0 0 1440 796" fill="none" xmlns="http://www.w3.org/2000/svg">
<path d="M-62.6154 216.134C-104.69 211.765 -36.1114 541.473 -36.1114 635.285C1.94797 635.285 125.288 626.471 313.405 625.118C451.842 624.123 804.382 720.942 971.905 719.787C1309.59 717.459 1490.43 625.118 1675.24 625.118C1675.24 512.835 1743.65 267.172 1716.25 249.912C1223.06 -60.7523 652.881 554.742 143.826 259.588C122.237 247.07 5.3988 189.045 -62.6154 216.134Z" fill="#83A6D2" fill-opacity="0.15"/>
<path d="M1475.91 701.234C1481.14 700.784 1460.91 636.269 1462.7 631.314C1503.12 519.547 1554.85 304.713 1520.95 191.685C1463.48 0.0812885 1191.2 210.416 1122.73 260.515C851.578 458.902 595.296 311.631 304.453 262.276C226.847 249.106 64.9068 267.522 -3.96428 318.702C-50.6211 353.374 -84.4083 528.945 -85.7716 636.96C-15.3754 636.182 190.147 711.127 434.905 710.748C687.261 710.358 1023.48 661.223 1230.41 661.748C1362.03 662.081 1440.22 700.366 1475.91 701.234Z" fill="#83A6D2" fill-opacity="0.15"/>
</svg>
