<svg width="1440" height="613" viewBox="0 0 1440 613" fill="none" xmlns="http://www.w3.org/2000/svg">
<path d="M1202.01 142.079V179.903C1202.01 181.058 1201.08 181.994 1199.92 181.994H1204.1H1205.15V142.267C1204.09 142.267 1203.04 142.202 1202.01 142.079Z" fill="#F9D026"/>
<path d="M1205.15 181.994H1206.19H1210.38C1209.22 181.994 1208.28 181.058 1208.28 179.903V142.079C1207.26 142.202 1206.21 142.267 1205.15 142.267V181.994H1205.15Z" fill="#E07934"/>
<path d="M1216.62 48.7646C1216.75 48.8788 1216.87 48.9952 1217 49.1128C1216.87 48.9955 1216.75 48.8791 1216.62 48.7646Z" fill="#587853"/>
<path d="M1218.38 50.5547C1218.48 50.6746 1218.58 50.7953 1218.68 50.9178C1218.58 50.7953 1218.48 50.6746 1218.38 50.5547Z" fill="#587853"/>
<path d="M1217.82 49.9321C1217.93 50.05 1218.04 50.1699 1218.14 50.2906C1218.04 50.1699 1217.93 50.0503 1217.82 49.9321Z" fill="#587853"/>
<path d="M1217.23 49.335C1217.35 49.4511 1217.47 49.5693 1217.58 49.6883C1217.47 49.569 1217.35 49.4511 1217.23 49.335Z" fill="#587853"/>
<path d="M1219.41 51.874C1219.5 51.9968 1219.59 52.1204 1219.67 52.2455C1219.59 52.1204 1219.5 51.9968 1219.41 51.874Z" fill="#587853"/>
<path d="M1218.91 51.2026C1219 51.324 1219.1 51.4461 1219.19 51.5701C1219.1 51.4461 1219 51.324 1218.91 51.2026Z" fill="#587853"/>
<path d="M1219.88 52.5688C1219.97 52.6928 1220.05 52.817 1220.12 52.9429C1220.05 52.817 1219.97 52.6928 1219.88 52.5688Z" fill="#587853"/>
<path d="M1213.21 46.3447C1213.4 46.4479 1213.58 46.5558 1213.76 46.665C1213.58 46.5555 1213.4 46.4479 1213.21 46.3447Z" fill="#587853"/>
<path d="M1214.64 47.2227C1214.8 47.3299 1214.95 47.4409 1215.11 47.5527C1214.95 47.4409 1214.8 47.3302 1214.64 47.2227Z" fill="#587853"/>
<path d="M1213.94 46.7681C1214.11 46.873 1214.27 46.9825 1214.44 47.0927C1214.28 46.9825 1214.11 46.8733 1213.94 46.7681Z" fill="#587853"/>
<path d="M1215.32 47.7075C1215.47 47.8171 1215.61 47.93 1215.76 48.0436C1215.61 47.9298 1215.47 47.8171 1215.32 47.7075Z" fill="#587853"/>
<path d="M1215.98 48.2222C1216.12 48.334 1216.25 48.4487 1216.39 48.5643C1216.25 48.4484 1216.12 48.334 1215.98 48.2222Z" fill="#587853"/>
<path d="M1222.3 58.0151C1222.33 58.1365 1222.36 58.2566 1222.39 58.3788C1222.36 58.2566 1222.33 58.1365 1222.3 58.0151Z" fill="#587853"/>
<path d="M1205.15 44.0259C1207.73 44.1676 1210.18 44.8315 1212.38 45.9116C1210.18 44.8312 1207.73 44.1679 1205.15 44.0259Z" fill="#587853"/>
<path d="M1222.5 58.8774C1222.53 58.9927 1222.55 59.1069 1222.58 59.2227C1222.55 59.1066 1222.53 58.9924 1222.5 58.8774Z" fill="#587853"/>
<path d="M1222.67 59.7886C1222.69 59.886 1222.71 59.9823 1222.72 60.0804C1222.71 59.9823 1222.69 59.886 1222.67 59.7886Z" fill="#587853"/>
<path d="M1222.06 57.1763C1222.1 57.3008 1222.14 57.4244 1222.17 57.5497C1222.14 57.4244 1222.1 57.3008 1222.06 57.1763Z" fill="#587853"/>
<path d="M1220.74 54.0229C1220.81 54.1489 1220.87 54.2748 1220.94 54.4024C1220.87 54.2748 1220.81 54.1489 1220.74 54.0229Z" fill="#587853"/>
<path d="M1221.12 54.7812C1221.18 54.9077 1221.24 55.034 1221.3 55.1622C1221.24 55.034 1221.18 54.9077 1221.12 54.7812Z" fill="#587853"/>
<path d="M1221.47 55.5605C1221.52 55.687 1221.57 55.813 1221.62 55.9409C1221.57 55.8127 1221.52 55.6868 1221.47 55.5605Z" fill="#587853"/>
<path d="M1221.78 56.3584C1221.83 56.4843 1221.87 56.6097 1221.92 56.737C1221.87 56.6097 1221.83 56.4843 1221.78 56.3584Z" fill="#587853"/>
<path d="M1220.33 53.2856C1220.4 53.4107 1220.48 53.5358 1220.55 53.6628C1220.48 53.5358 1220.4 53.4107 1220.33 53.2856Z" fill="#587853"/>
<path d="M1212.46 45.9531C1212.67 46.0546 1212.87 46.1613 1213.07 46.27C1212.87 46.1613 1212.67 46.0546 1212.46 45.9531Z" fill="#587853"/>
<path d="M1205.15 137.04C1200.82 137.04 1197.31 133.53 1197.31 129.199C1197.31 124.869 1200.82 121.358 1205.15 121.358V116.131C1196.49 116.131 1189.47 109.11 1189.47 100.449C1189.47 91.7883 1196.49 84.7673 1205.15 84.7673V70.6536C1209.48 70.6536 1212.99 67.1433 1212.99 62.8127C1212.99 58.482 1209.48 54.9717 1205.15 54.9717V44.026C1204.8 44.007 1204.45 43.9946 1204.1 43.9946C1194.34 43.9946 1186.31 51.432 1185.38 60.9508C1179.1 64.2895 1174.83 70.892 1174.83 78.4946C1174.83 81.0847 1175.33 83.5564 1176.23 85.825C1170.33 89.9883 1166.47 96.8567 1166.47 104.631C1166.47 114.321 1172.46 122.605 1180.94 125.993C1184.46 134.612 1192.44 140.934 1202.01 142.079C1203.04 142.202 1204.09 142.267 1205.15 142.267V137.04H1205.15ZM1186.85 77.972C1186.85 75.3738 1188.96 73.2673 1191.56 73.2673C1194.16 73.2673 1196.26 75.3735 1196.26 77.972C1196.26 80.5704 1194.16 82.6766 1191.56 82.6766C1188.96 82.6763 1186.85 80.5701 1186.85 77.972Z" fill="#F9D026"/>
<path d="M1232.37 84.7383C1233.02 82.7744 1233.38 80.6771 1233.38 78.4949C1233.38 70.8923 1229.1 64.2899 1222.83 60.9511C1222.8 60.659 1222.77 60.3689 1222.72 60.0809C1222.71 59.9828 1222.69 59.8865 1222.67 59.789C1222.64 59.5999 1222.61 59.4104 1222.58 59.2232C1222.56 59.1074 1222.53 58.9932 1222.5 58.878C1222.47 58.7115 1222.43 58.5442 1222.39 58.3794C1222.36 58.2572 1222.33 58.1368 1222.3 58.0157C1222.26 57.8602 1222.22 57.7044 1222.17 57.5503C1222.14 57.4246 1222.1 57.3013 1222.06 57.1768C1222.01 57.0302 1221.97 56.883 1221.92 56.7378C1221.87 56.6104 1221.83 56.4851 1221.78 56.3592C1221.73 56.2194 1221.68 56.0794 1221.62 55.9411C1221.57 55.8132 1221.52 55.6873 1221.47 55.5608C1221.41 55.4277 1221.36 55.2943 1221.3 55.1629C1221.24 55.0347 1221.18 54.9084 1221.12 54.7819C1221.06 54.6552 1221 54.5281 1220.94 54.403C1220.87 54.2754 1220.81 54.1494 1220.74 54.0235C1220.68 53.9028 1220.61 53.782 1220.55 53.663C1220.48 53.5362 1220.4 53.4111 1220.33 53.2858C1220.26 53.1711 1220.19 53.0564 1220.12 52.9431C1220.05 52.8172 1219.97 52.693 1219.89 52.5691C1219.81 52.4607 1219.74 52.3523 1219.67 52.2456C1219.59 52.1206 1219.5 51.9969 1219.41 51.8742C1219.34 51.7724 1219.26 51.6709 1219.19 51.5706C1219.1 51.4467 1219 51.3245 1218.91 51.2031C1218.83 51.1074 1218.76 51.0125 1218.68 50.9185C1218.58 50.796 1218.48 50.675 1218.38 50.5554C1218.3 50.4666 1218.22 50.3786 1218.14 50.2912C1218.04 50.1704 1217.93 50.0508 1217.82 49.9327C1217.74 49.8507 1217.66 49.7697 1217.58 49.6889C1217.47 49.5696 1217.35 49.4517 1217.23 49.3355C1217.15 49.2608 1217.07 49.1872 1217 49.1136C1216.87 48.996 1216.75 48.8796 1216.62 48.7654C1216.54 48.6979 1216.46 48.6315 1216.39 48.5648C1216.25 48.4492 1216.12 48.3345 1215.98 48.2226C1215.91 48.1625 1215.83 48.1036 1215.76 48.0447C1215.61 47.9308 1215.47 47.8181 1215.32 47.7086C1215.25 47.656 1215.18 47.6054 1215.11 47.5539C1214.95 47.4421 1214.8 47.3311 1214.64 47.2239C1214.57 47.1796 1214.51 47.1373 1214.44 47.0939C1214.27 46.9835 1214.11 46.8743 1213.93 46.7693C1213.88 46.734 1213.82 46.7006 1213.76 46.6661C1213.58 46.5569 1213.4 46.449 1213.21 46.3458C1213.16 46.3202 1213.12 46.2964 1213.07 46.2711C1212.87 46.1627 1212.67 46.0557 1212.47 45.9543C1212.44 45.9402 1212.41 45.9269 1212.38 45.9129C1210.18 44.8327 1207.73 44.1689 1205.15 44.0271C1205.15 44.0271 1205.15 44.0271 1205.15 44.0269V54.9728C1209.48 54.9728 1212.99 58.4832 1212.99 62.8138C1212.99 67.1442 1209.48 70.6548 1205.15 70.6548V84.7685C1196.49 84.7685 1189.47 91.7895 1189.47 100.45C1189.47 109.111 1196.49 116.132 1205.15 116.132V121.359C1200.82 121.359 1197.31 124.87 1197.31 129.2C1197.31 133.531 1200.82 137.041 1205.15 137.041V142.268C1206.21 142.268 1207.26 142.204 1208.28 142.08C1217.86 140.935 1225.84 134.613 1229.35 125.994C1237.83 122.607 1243.83 114.322 1243.83 104.632C1243.83 96.1354 1239.22 88.721 1232.37 84.7383ZM1222.92 118.745C1217.44 118.745 1212.99 114.298 1212.99 108.813C1212.99 103.328 1217.44 98.8816 1222.92 98.8816C1228.41 98.8816 1232.85 103.328 1232.85 108.813C1232.85 114.298 1228.41 118.745 1222.92 118.745Z" fill="#E07934"/>
<path d="M1222.92 118.745C1228.41 118.745 1232.85 114.298 1232.85 108.813C1232.85 103.328 1228.41 98.8813 1222.92 98.8813C1217.44 98.8813 1212.99 103.328 1212.99 108.813C1212.99 114.298 1217.44 118.745 1222.92 118.745Z" fill="#F9D026"/>
<path d="M1191.56 82.6769C1194.16 82.6769 1196.26 80.5705 1196.26 77.9722C1196.26 75.3739 1194.16 73.2676 1191.56 73.2676C1188.96 73.2676 1186.85 75.3739 1186.85 77.9722C1186.85 80.5705 1188.96 82.6769 1191.56 82.6769Z" fill="#E07934"/>
<path d="M1293.28 153.169V176.623C1293.28 178.759 1289.41 178.995 1289.41 178.995V153.418C1290.72 153.418 1292.01 153.327 1293.28 153.169Z" fill="#F9D026"/>
<path d="M1289.41 178.995C1289.41 178.995 1285.54 178.759 1285.54 176.623V153.169C1286.81 153.327 1288.1 153.418 1289.41 153.418V178.995Z" fill="#E07934"/>
<path d="M1284.69 7.32371C1285.04 6.09417 1285.37 4.91323 1285.69 3.79886C1285.72 3.68444 1285.76 3.57412 1285.8 3.4668C1285.76 3.57412 1285.72 3.68481 1285.69 3.79924C1285.37 4.91323 1285.04 6.09417 1284.69 7.32371Z" fill="#587853"/>
<path d="M1285.8 3.45935C1286.18 2.47361 1286.86 1.7833 1287.67 1.38916C1286.86 1.7833 1286.18 2.47361 1285.8 3.45935Z" fill="#587853"/>
<path d="M1289.41 126.345V0.994629C1291 0.994629 1292.59 1.9295 1293.12 3.79888C1301.35 32.5373 1320.35 101.261 1320.35 122.477C1320.35 138.254 1308.54 151.264 1293.27 153.169C1292.01 153.327 1290.72 153.418 1289.41 153.418V126.345Z" fill="#F9D026"/>
<path d="M1258.59 119.19C1260.16 95.8937 1276.45 36.3157 1284.69 7.32373C1285.04 6.09455 1285.37 4.91325 1285.69 3.79888C1285.72 3.68445 1285.76 3.57376 1285.8 3.46644C1285.8 3.46419 1285.8 3.46157 1285.8 3.45896C1286.18 2.47323 1286.86 1.78291 1287.67 1.38877C1287.85 1.30127 1288.04 1.22797 1288.23 1.16964C1288.42 1.1113 1288.62 1.06755 1288.81 1.03801C1289.01 1.00847 1289.21 0.994629 1289.41 0.994629V126.345V153.418C1288.1 153.418 1286.81 153.327 1285.54 153.168C1285.26 153.133 1284.98 153.103 1284.7 153.061C1280.6 152.435 1276.77 151.005 1273.36 148.938C1272.94 148.68 1272.52 148.411 1272.11 148.133C1268.41 145.631 1265.27 142.348 1262.95 138.521C1262.17 137.245 1261.49 135.909 1260.9 134.52C1260.51 133.595 1260.16 132.647 1259.86 131.678C1258.96 128.771 1258.47 125.681 1258.47 122.477C1258.47 121.483 1258.51 120.384 1258.59 119.19Z" fill="#E07934"/>
<path d="M945.571 93.9762C945.571 88.1825 940.874 83.4854 935.08 83.4854H928.141C926.245 83.4854 924.681 82.1763 924.118 80.3656C922.789 76.0952 918.806 72.9946 914.098 72.9946H880.528C874.734 72.9946 870.037 77.6917 870.037 83.4854V108.663H945.571V93.9762Z" fill="#F5C042"/>
<path d="M937.179 104.466C937.179 98.6727 932.482 93.9757 926.688 93.9757H921.216C918.604 93.9757 916.39 92.2974 915.373 89.8921C913.78 86.1267 910.052 83.4849 905.706 83.4849H872.136C871.417 83.4849 870.716 83.5585 870.038 83.6962V98.1722H859.547V114.958C859.547 120.751 864.244 125.448 870.038 125.448H901.51V108.663H937.179V104.466Z" fill="#F9D026"/>
<path d="M907.805 123.35V133.841C907.805 137.312 904.981 140.136 901.511 140.136H899.412V121.252H895.216V131.743H884.725C881.254 131.743 878.431 128.919 878.431 125.448V112.859H874.234V125.448C874.234 131.233 878.941 135.939 884.725 135.939H895.216V182.099H899.412V144.332H901.511C907.295 144.332 912.001 139.625 912.001 133.841V123.35H907.805Z" fill="#E07934"/>
<path d="M878.431 112.859H874.234V119.154H878.431V112.859Z" fill="#CC621A"/>
<path d="M899.413 121.251H895.217V129.644H899.413V121.251Z" fill="#CC621A"/>
<path d="M912.001 123.35H907.805V129.644H912.001V123.35Z" fill="#CC621A"/>
<path d="M890.568 83.4849H861.644C856.937 83.4849 852.954 86.5857 851.625 90.8559C851.062 92.6663 849.498 93.9757 847.602 93.9757H847.408C841.929 93.9757 837.036 97.9816 836.516 103.436C835.919 109.693 840.824 114.957 846.957 114.957H876.332C881.039 114.957 885.022 111.856 886.351 107.586C886.914 105.776 888.478 104.466 890.374 104.466H891.019C897.153 104.466 902.057 99.2021 901.46 92.9451C900.94 87.4905 896.047 83.4849 890.568 83.4849Z" fill="#E07934"/>
<path d="M947.219 93.9761H926.688C921.98 93.9761 917.997 97.0769 916.669 101.347C916.106 103.157 914.541 104.467 912.646 104.467H901.961C896.482 104.467 891.589 108.473 891.069 113.927C890.472 120.184 895.376 125.448 901.51 125.448H922.492C927.199 125.448 931.183 122.347 932.511 118.077C933.074 116.267 934.638 114.957 936.534 114.957H947.67C953.804 114.957 958.708 109.693 958.111 103.436C957.591 97.9817 952.698 93.9761 947.219 93.9761Z" fill="#E07934"/>
<path d="M857.498 103.436C858.018 97.9813 862.911 93.9757 868.39 93.9757H868.584C870.48 93.9757 872.044 92.666 872.607 90.8559C873.935 86.5854 877.919 83.4849 882.626 83.4849H861.644C856.937 83.4849 852.954 86.5854 851.625 90.8559C851.062 92.666 849.498 93.9757 847.602 93.9757H847.408C841.929 93.9757 837.036 97.9813 836.516 103.436C835.919 109.693 840.824 114.957 846.957 114.957H867.939C861.805 114.957 856.901 109.693 857.498 103.436Z" fill="#F9D026"/>
<path d="M901.56 113.927C902.08 108.473 906.973 104.467 912.452 104.467H901.961C896.482 104.467 891.589 108.473 891.069 113.927C890.472 120.184 895.376 125.449 901.51 125.449H912.001C905.867 125.449 900.963 120.184 901.56 113.927Z" fill="#F9D026"/>
<path d="M927.159 101.347C928.487 97.0766 932.47 93.9761 937.178 93.9761H926.687C921.979 93.9761 917.996 97.0766 916.668 101.347C916.105 103.157 914.54 104.467 912.645 104.467H923.135C925.031 104.467 926.596 103.157 927.159 101.347Z" fill="#F9D026"/>
<path d="M21.6273 205.451C15.42 204.878 9.12228 209.461 3.91065 214.156C3.76287 227.894 3.40654 241.608 2.54762 255.351C1.24143 276.25 -5.67539 296.747 -10.316 317.166C-19.676 358.35 -26.8479 398.655 -25.1653 441.14C-24.5202 457.431 -23.9567 473.611 -23.9567 489.918C-23.9567 493.343 -23.0569 498.467 -24.043 501.919C-28.4377 517.3 -30 533.512 -30 550.093C-30 575.045 -24.9118 595.459 -14.8917 618.123C-8.73279 632.054 -1.09759 647.016 1.42528 662.153C4.45259 680.317 4.22391 699.419 3.23828 717.752C2.33723 734.511 0.977703 734.639 18.8646 735.105C181.055 739.328 344.021 727.966 505.744 716.69L515.28 716.025C544.094 714.017 572.088 712.576 600.232 707.91C619.136 704.776 638.952 705.188 657.989 704.974C714.067 704.344 770.179 705.182 826.253 705.492C950.201 706.178 1074.25 707.731 1198.18 704.543C1261.18 702.922 1331.81 703.836 1392.94 683.909C1444.68 667.045 1506.1 787.44 1498.5 735.105C1496.8 723.389 1461.29 544.185 1457.69 532.999C1454.72 523.759 1457.93 510.641 1458.56 501.401C1460.76 468.733 1466.4 436.429 1468.4 403.758C1470.05 376.678 1469.43 349.461 1469.43 322.346C1469.43 271.479 1464.38 222.29 1459.22 171.948L1458.73 167.205C1457.72 157.345 1456.88 150.025 1445.18 150.025C1430.14 150.025 1417.44 148.679 1402.96 144.154C1399.26 142.997 1393.98 151.55 1391.39 153.305C1383.41 158.708 1374.16 157.713 1365.14 156.586C1361.55 156.137 1358.75 158.416 1355.65 160.039C1348.06 164.012 1340.88 164.011 1332.52 164.011L1332.17 164.011C1316.18 164.011 1300.55 160.282 1284.85 161.248C1273.32 161.958 1254.87 165.83 1243.24 161.421C1237.23 159.142 1235.2 151.917 1229.95 149.766C1223.43 147.098 1206.73 161.333 1200.25 163.406C1178.62 170.328 1160.6 158.764 1139.47 160.989C1110.98 163.988 1082.31 159.744 1053.65 162.457C1038.76 163.867 1026.11 163.512 1011.35 166.428C994.258 169.804 978.13 152.571 961.623 161.248C958.401 162.942 949.625 169.956 946.428 165.306C943.867 161.58 941.893 156.808 938.054 154.169C931.046 149.35 916.914 170.157 909.219 171.867C903.526 173.132 897.79 173.647 891.952 174.889C884.194 176.539 878.73 175.692 871.491 172.73C866.624 170.739 860.133 173.903 855.347 174.889C850.325 175.923 833.125 181.657 829.188 175.752C827.201 172.772 827.185 169.826 823.145 169.018C814.011 167.191 807.275 168.503 797.935 168.673C790.189 168.813 785.385 172.3 777.992 174.025C768.525 176.234 760.294 174.177 751.492 171.976L751.402 171.953C739.398 168.952 728.148 181.975 717.3 173.68C711.733 169.422 703.831 168.805 697.098 168.673C690.599 168.545 671.671 163.601 670.68 154.687C670.184 150.221 660.337 139.126 656.608 137.075C642.218 129.16 634.925 145.81 628.032 154.082C623.668 159.319 623.35 153.278 619.053 154.255C608.499 156.654 599.084 167.073 590.736 173.335C583.697 178.614 568.827 180.063 560.247 180.9L559.915 180.932C544.378 182.448 529.65 186.393 513.726 183.867C505.587 182.576 499.701 180.053 492.316 177.133C489.446 175.999 486.28 176.232 483.51 177.479C473.797 181.849 464.258 185.394 453.466 185.767C439.972 186.232 426.582 187.321 413.062 187.321C395.875 187.321 380.454 190.429 363.248 190.429C357.437 190.429 351.415 189.047 345.895 189.047C343.178 189.047 341.802 191.81 338.902 191.81C336.603 191.81 334.709 189.993 332.427 190.601L332.418 190.604C319.292 194.104 308 197.115 295.303 191.119C285 186.254 269.585 190.429 258.18 190.429C240.366 190.429 222.761 190.109 204.74 192.76C194.908 194.205 185.053 195.46 175.214 196.817C160.595 198.834 144.364 204.069 129.544 204.069C124.307 204.069 121.367 199.905 115.558 199.753C110.205 199.612 106.498 198.334 101.572 196.99C92.4004 194.489 77.0104 195.225 67.3838 196.99C55.7139 199.129 46.9012 221.058 33.8866 215.811C28.9696 213.828 27.0379 205.95 21.6273 205.451Z" fill="#B42B52"/>
</svg>
