<svg width="1440" height="476" viewBox="0 0 1440 476" fill="none" xmlns="http://www.w3.org/2000/svg">
<path d="M6.62725 70.9628C0.420021 70.3898 -5.87772 74.9728 -11.0893 79.6682C-11.2371 93.4064 -11.5935 107.121 -12.4524 120.863C-13.7586 141.762 -20.6754 162.259 -25.316 182.678C-34.676 223.862 -41.8479 264.167 -40.1653 306.652C-39.5202 322.943 -38.9567 339.124 -38.9567 355.431C-38.9567 358.855 -38.0569 363.98 -39.043 367.431C-43.4377 382.813 -45 399.024 -45 415.605C-45 440.557 -39.9118 460.971 -29.8917 483.635C-23.7328 497.566 -16.0976 512.528 -13.5747 527.665C-10.5474 545.829 -10.7761 564.931 -11.7617 583.264C-12.6628 600.023 -14.0223 600.151 3.86459 600.617C166.055 604.841 329.021 593.478 490.744 582.202L500.28 581.537C529.094 579.529 557.088 578.089 585.232 573.422C604.136 570.288 623.952 570.701 642.989 570.487C699.067 569.857 755.179 570.694 811.253 571.005C935.201 571.691 1059.25 573.243 1183.18 570.055C1246.18 568.434 1316.81 569.348 1377.94 549.421C1429.68 532.557 1491.1 652.952 1483.5 600.617C1481.8 588.901 1446.29 409.697 1442.69 398.511C1439.72 389.272 1442.93 376.153 1443.56 366.913C1445.76 334.245 1451.4 301.941 1453.4 269.27C1455.05 242.19 1454.43 214.973 1454.43 187.858C1454.43 136.991 1449.38 87.8026 1444.22 37.4599L1443.73 32.7172C1442.72 22.857 1441.88 15.5369 1430.18 15.5369C1415.14 15.5369 1402.44 14.1916 1387.96 9.66621C1384.26 8.50962 1378.98 17.0617 1376.39 18.8175C1368.41 24.2197 1359.16 23.2254 1350.14 22.0982C1346.55 21.6492 1343.75 23.9285 1340.65 25.5515C1333.06 29.5243 1325.88 29.5237 1317.52 29.5229L1317.17 29.5228C1301.18 29.5228 1285.55 25.7943 1269.85 26.7602C1258.32 27.47 1239.87 31.3425 1228.24 26.9328C1222.23 24.654 1220.2 17.4289 1214.95 15.2779C1208.43 12.6105 1191.73 26.8448 1185.25 28.9185C1163.62 35.84 1145.6 24.2765 1124.47 26.5012C1095.98 29.5004 1067.31 25.256 1038.65 27.9688C1023.76 29.3791 1011.11 29.024 996.351 31.9402C979.258 35.3165 963.13 18.0836 946.623 26.7602C943.401 28.4538 934.625 35.468 931.428 30.8178C928.867 27.0919 926.893 22.3201 923.054 19.6809C916.046 14.8625 901.914 35.6691 894.219 37.3792C888.526 38.6443 882.79 39.1587 876.952 40.4008C869.194 42.0514 863.73 41.2039 856.491 38.2425C851.624 36.2515 845.133 39.4155 840.347 40.4008C835.325 41.4348 818.125 47.1694 814.188 41.2642C812.201 38.2845 812.185 35.3383 808.145 34.5302C799.011 32.7035 792.275 34.015 782.935 34.1848C775.189 34.3257 770.385 37.8125 762.992 39.5375C753.525 41.7465 745.294 39.6887 736.492 37.4882L736.402 37.4655C724.398 34.4644 713.148 47.4872 702.3 39.1922C696.733 34.9346 688.831 34.3168 682.098 34.1848C675.599 34.0574 656.671 29.1133 655.68 20.1989C655.184 15.7331 645.337 4.63795 641.608 2.58689C627.218 -5.32762 619.925 11.3222 613.032 19.5945C608.668 24.8308 608.35 18.7906 604.053 19.7672C593.499 22.1657 584.084 32.5855 575.736 38.8468C568.697 44.1262 553.827 45.5755 545.247 46.4118L544.915 46.4441C529.378 47.9599 514.65 51.9053 498.726 49.3795C490.587 48.0884 484.701 45.5653 477.316 42.6455C474.446 41.5109 471.28 41.744 468.51 42.9908C458.797 47.3614 449.258 50.9067 438.466 51.2788C424.972 51.7441 411.582 52.8328 398.062 52.8328C380.875 52.8328 365.454 55.9408 348.248 55.9408C342.437 55.9408 336.415 54.5595 330.895 54.5595C328.178 54.5595 326.802 57.3221 323.902 57.3221C321.603 57.3221 319.709 55.5049 317.427 56.1135L317.418 56.1159C304.292 59.6159 293 62.6272 280.303 56.6315C270 51.7659 254.585 55.9408 243.18 55.9408C225.366 55.9408 207.761 55.6216 189.74 58.2718C179.908 59.7176 170.053 60.9723 160.214 62.3295C145.595 64.3458 129.364 69.5814 114.544 69.5814C109.307 69.5814 106.367 65.4177 100.558 65.2648C95.2046 65.1239 91.4983 63.8457 86.5718 62.5021C77.4004 60.0008 62.0104 60.7373 52.3838 62.5021C40.7139 64.6416 31.9012 86.5706 18.8866 81.3228C13.9696 79.3401 12.0379 71.4622 6.62725 70.9628Z" fill="#B42B52"/>
</svg>
