<svg width="124" height="80" viewBox="0 0 124 80" fill="none" xmlns="http://www.w3.org/2000/svg">
<path d="M94.8923 7.14896L108.263 29.8486C114.532 26.1562 116.62 18.0815 112.928 11.8133C109.235 5.54511 101.161 3.45674 94.8923 7.14896Z" fill="#BCE8F7"/>
<path d="M16.364 75.9585L24.3477 71.2559L17.9962 60.4729L10.0125 65.1755L16.364 75.9585Z" fill="white"/>
<path d="M108.267 29.8484C114.535 26.156 116.623 18.0813 112.931 11.8131L101.581 18.4987L108.267 29.8484Z" fill="#8EC1D6"/>
<path d="M21.1712 65.8623L13.1875 70.5649L16.3626 75.9554L24.3463 71.2527L21.1712 65.8623Z" fill="white"/>
<path d="M25.1225 75.879L62.0039 54.1548L51.2096 35.8291L14.3281 57.5534L25.1225 75.879Z" fill="#EDEEF0"/>
<path d="M62.0004 54.154L56.6035 44.9917L19.7221 66.7159L25.119 75.8783L62.0004 54.154Z" fill="#DCDEE2"/>
<path d="M51.2078 35.8275L46.3301 38.7007L57.1244 57.0263L62.0022 54.1532L51.2078 35.8275Z" fill="#B7B9C0"/>
<path d="M62.0043 54.1521L56.6074 44.9897L51.7297 47.8629L57.1266 57.0252L62.0043 54.1521Z" fill="#9B9DA6"/>
<path d="M61.5837 57.9158L113.436 27.3735L99.5679 3.83035L47.7161 34.3726L61.5837 57.9158Z" fill="#EDEEF0"/>
<path d="M90.1659 9.36592L87.2441 11.0869L101.112 34.6301L104.034 32.9091L90.1659 9.36592Z" fill="white"/>
<path d="M99.5711 3.82559L94.5508 6.78271L108.418 30.3259L113.439 27.3688L99.5711 3.82559Z" fill="white"/>
<path d="M113.435 27.3716L106.502 15.6011L54.6501 46.1433L61.5833 57.9139L113.435 27.3716Z" fill="#DCDEE2"/>
<path d="M97.0936 21.1389L94.1719 22.8599L101.105 34.6304L104.027 32.9094L97.0936 21.1389Z" fill="white"/>
<path d="M113.437 27.3716L106.504 15.6011L101.484 18.5582L108.417 30.3287L113.437 27.3716Z" fill="white"/>
<path d="M58.4218 63.4262C61.7633 62.4995 63.7209 59.0395 62.7942 55.6979C61.8675 52.3564 58.4075 50.3988 55.066 51.3255C51.7245 52.2522 49.7668 55.7122 50.6935 59.0538C51.6202 62.3953 55.0803 64.3529 58.4218 63.4262Z" fill="#F9D026"/>
<path d="M57.689 60.7836C59.5713 60.2616 60.674 58.3126 60.152 56.4304C59.63 54.5482 57.681 53.4455 55.7987 53.9674C53.9165 54.4894 52.8138 56.4385 53.3358 58.3207C53.8578 60.2029 55.8068 61.3056 57.689 60.7836Z" fill="#E7C224"/>
</svg>

