<svg width="485" height="182" viewBox="0 0 485 182" fill="none" xmlns="http://www.w3.org/2000/svg">
<path d="M366.013 141.084V178.908C366.013 180.063 365.077 180.999 363.922 180.999H368.104H369.149V141.272C368.087 141.272 367.041 141.207 366.013 141.084Z" fill="#F9D026"/>
<path d="M369.149 180.999H370.194H374.376C373.221 180.999 372.285 180.063 372.285 178.908V141.084C371.256 141.207 370.21 141.272 369.148 141.272V180.999H369.149Z" fill="#E07934"/>
<path d="M380.619 47.7695C380.747 47.8837 380.873 48.0001 380.998 48.1177C380.873 48.0004 380.747 47.884 380.619 47.7695Z" fill="#587853"/>
<path d="M382.375 49.5596C382.478 49.6795 382.58 49.8002 382.679 49.9227C382.58 49.8002 382.478 49.6795 382.375 49.5596Z" fill="#587853"/>
<path d="M381.816 48.937C381.927 49.0549 382.037 49.1748 382.144 49.2955C382.036 49.1748 381.927 49.0552 381.816 48.937Z" fill="#587853"/>
<path d="M381.23 48.3398C381.35 48.456 381.467 48.5742 381.583 48.6932C381.467 48.5739 381.35 48.456 381.23 48.3398Z" fill="#587853"/>
<path d="M383.41 50.8789C383.498 51.0017 383.585 51.1253 383.67 51.2504C383.586 51.1253 383.498 51.0017 383.41 50.8789Z" fill="#587853"/>
<path d="M382.908 50.2075C383.004 50.3288 383.098 50.451 383.19 50.5749C383.098 50.451 383.004 50.3288 382.908 50.2075Z" fill="#587853"/>
<path d="M383.885 51.5737C383.965 51.6976 384.045 51.8218 384.123 51.9478C384.045 51.8218 383.965 51.6976 383.885 51.5737Z" fill="#587853"/>
<path d="M377.211 45.3496C377.397 45.4528 377.58 45.5606 377.762 45.6699C377.58 45.5603 377.397 45.4528 377.211 45.3496Z" fill="#587853"/>
<path d="M378.639 46.2275C378.797 46.3348 378.953 46.4458 379.108 46.5576C378.953 46.4458 378.797 46.3351 378.639 46.2275Z" fill="#587853"/>
<path d="M377.936 45.7729C378.107 45.8779 378.275 45.9874 378.442 46.0975C378.275 45.9874 378.107 45.8782 377.936 45.7729Z" fill="#587853"/>
<path d="M379.322 46.7124C379.469 46.8219 379.614 46.9349 379.758 47.0485C379.614 46.9346 379.469 46.8219 379.322 46.7124Z" fill="#587853"/>
<path d="M379.982 47.2271C380.12 47.3389 380.254 47.4536 380.388 47.5692C380.254 47.4533 380.12 47.3389 379.982 47.2271Z" fill="#587853"/>
<path d="M386.299 57.02C386.331 57.1413 386.365 57.2615 386.395 57.3837C386.365 57.2615 386.331 57.1413 386.299 57.02Z" fill="#587853"/>
<path d="M369.15 43.0308C371.733 43.1725 374.177 43.8363 376.379 44.9165C374.177 43.836 371.734 43.1728 369.15 43.0308Z" fill="#587853"/>
<path d="M386.502 57.8823C386.526 57.9976 386.554 58.1117 386.576 58.2276C386.554 58.1115 386.527 57.9973 386.502 57.8823Z" fill="#587853"/>
<path d="M386.674 58.7935C386.69 58.8909 386.709 58.9872 386.723 59.0853C386.709 58.9872 386.69 58.8909 386.674 58.7935Z" fill="#587853"/>
<path d="M386.057 56.1812C386.096 56.3056 386.137 56.4293 386.173 56.5546C386.137 56.4293 386.096 56.3056 386.057 56.1812Z" fill="#587853"/>
<path d="M384.74 53.0278C384.807 53.1538 384.874 53.2797 384.938 53.4073C384.874 53.2797 384.807 53.1538 384.74 53.0278Z" fill="#587853"/>
<path d="M385.121 53.7861C385.181 53.9126 385.241 54.0388 385.298 54.1671C385.241 54.0388 385.181 53.9126 385.121 53.7861Z" fill="#587853"/>
<path d="M385.467 54.5654C385.52 54.6919 385.573 54.8179 385.624 54.9458C385.573 54.8176 385.52 54.6916 385.467 54.5654Z" fill="#587853"/>
<path d="M385.779 55.3633C385.825 55.4892 385.873 55.6146 385.916 55.7419C385.873 55.6146 385.825 55.4892 385.779 55.3633Z" fill="#587853"/>
<path d="M384.328 52.2905C384.402 52.4156 384.475 52.5407 384.546 52.6677C384.475 52.5407 384.402 52.4156 384.328 52.2905Z" fill="#587853"/>
<path d="M376.465 44.958C376.669 45.0595 376.87 45.1662 377.07 45.2748C376.87 45.1662 376.669 45.0595 376.465 44.958Z" fill="#587853"/>
<path d="M369.149 136.045C364.818 136.045 361.308 132.534 361.308 128.204C361.308 123.874 364.818 120.363 369.149 120.363V115.136C360.488 115.136 353.467 108.115 353.467 99.4542C353.467 90.7932 360.488 83.7722 369.149 83.7722V69.6585C373.479 69.6585 376.99 66.1481 376.99 61.8175C376.99 57.4869 373.479 53.9765 369.149 53.9765V43.0308C368.802 43.0119 368.454 42.9995 368.103 42.9995C358.339 42.9995 350.313 50.4368 349.378 59.9557C343.104 63.2944 338.83 69.8969 338.83 77.4995C338.83 80.0896 339.332 82.5612 340.233 84.8299C334.328 88.9932 330.467 95.8616 330.467 103.636C330.467 113.326 336.462 121.61 344.943 124.998C348.459 133.617 356.439 139.938 366.012 141.084C367.041 141.207 368.087 141.272 369.148 141.272V136.045H369.149ZM350.853 76.9768C350.853 74.3787 352.96 72.2722 355.558 72.2722C358.156 72.2722 360.263 74.3784 360.263 76.9768C360.263 79.5753 358.156 81.6815 355.558 81.6815C352.96 81.6812 350.853 79.575 350.853 76.9768Z" fill="#F9D026"/>
<path d="M396.37 83.7432C397.02 81.7793 397.376 79.6819 397.376 77.4998C397.376 69.8972 393.103 63.2947 386.829 59.956C386.801 59.6639 386.765 59.3738 386.723 59.0857C386.709 58.9877 386.69 58.8914 386.674 58.7939C386.644 58.6048 386.614 58.4153 386.578 58.2281C386.555 58.1123 386.528 57.9981 386.503 57.8828C386.468 57.7164 386.434 57.5491 386.394 57.3843C386.365 57.2621 386.33 57.1417 386.298 57.0206C386.258 56.8651 386.218 56.7093 386.173 56.5552C386.137 56.4295 386.096 56.3062 386.057 56.1817C386.011 56.0351 385.966 55.8879 385.916 55.7427C385.873 55.6153 385.825 55.49 385.779 55.3641C385.728 55.2243 385.678 55.0843 385.624 54.946C385.573 54.8181 385.52 54.6922 385.467 54.5657C385.411 54.4326 385.356 54.2992 385.298 54.1678C385.24 54.0395 385.18 53.9133 385.12 53.7868C385.06 53.66 385.001 53.533 384.938 53.4079C384.874 53.2803 384.807 53.1543 384.74 53.0284C384.677 52.9077 384.613 52.7869 384.546 52.6679C384.476 52.5411 384.402 52.416 384.328 52.2907C384.261 52.176 384.193 52.0613 384.123 51.948C384.046 51.8221 383.966 51.6979 383.885 51.5739C383.815 51.4656 383.744 51.3572 383.671 51.2505C383.586 51.1254 383.499 51.0018 383.411 50.8791C383.338 50.7773 383.264 50.6758 383.189 50.5755C383.097 50.4515 383.003 50.3294 382.908 50.208C382.833 50.1123 382.757 50.0174 382.68 49.9234C382.58 49.8009 382.478 49.6799 382.375 49.5603C382.299 49.4715 382.222 49.3835 382.144 49.2961C382.036 49.1753 381.927 49.0557 381.816 48.9376C381.739 48.8556 381.661 48.7746 381.582 48.6938C381.466 48.5745 381.349 48.4566 381.23 48.3404C381.153 48.2657 381.075 48.1921 380.997 48.1185C380.872 48.0009 380.746 47.8845 380.618 47.7703C380.542 47.7028 380.465 47.6363 380.388 47.5696C380.254 47.4541 380.119 47.3394 379.982 47.2275C379.908 47.1674 379.833 47.1085 379.758 47.0496C379.614 46.9357 379.469 46.823 379.322 46.7135C379.252 46.6609 379.18 46.6103 379.108 46.5588C378.953 46.447 378.798 46.336 378.639 46.2287C378.574 46.1845 378.508 46.1422 378.442 46.0988C378.274 45.9884 378.106 45.8791 377.935 45.7742C377.878 45.7388 377.819 45.7055 377.761 45.671C377.579 45.5617 377.396 45.4539 377.21 45.3507C377.164 45.3251 377.117 45.3013 377.07 45.276C376.87 45.1676 376.669 45.0606 376.465 44.9591C376.437 44.9451 376.408 44.9318 376.379 44.9177C374.177 43.8376 371.733 43.1738 369.15 43.032C369.15 43.032 369.149 43.032 369.148 43.0317V53.9777C373.479 53.9777 376.989 57.4881 376.989 61.8187C376.989 66.149 373.479 69.6597 369.148 69.6597V83.7734C360.488 83.7734 353.467 90.7944 353.467 99.4553C353.467 108.116 360.488 115.137 369.148 115.137V120.364C364.818 120.364 361.307 123.875 361.307 128.205C361.307 132.536 364.818 136.046 369.148 136.046V141.273C370.21 141.273 371.256 141.208 372.285 141.085C381.858 139.94 389.838 133.618 393.354 124.999C401.835 121.612 407.83 113.327 407.83 103.637C407.831 95.1403 403.221 87.7259 396.37 83.7432ZM386.922 117.75C381.437 117.75 376.99 113.303 376.99 107.818C376.99 102.333 381.437 97.8865 386.922 97.8865C392.407 97.8865 396.853 102.333 396.853 107.818C396.854 113.303 392.407 117.75 386.922 117.75Z" fill="#E07934"/>
<path d="M386.922 117.75C392.407 117.75 396.854 113.303 396.854 107.818C396.854 102.333 392.407 97.8862 386.922 97.8862C381.437 97.8862 376.99 102.333 376.99 107.818C376.99 113.303 381.437 117.75 386.922 117.75Z" fill="#F9D026"/>
<path d="M355.558 81.6818C358.156 81.6818 360.263 79.5754 360.263 76.9771C360.263 74.3788 358.156 72.2725 355.558 72.2725C352.96 72.2725 350.854 74.3788 350.854 76.9771C350.854 79.5754 352.96 81.6818 355.558 81.6818Z" fill="#E07934"/>
<path d="M457.275 152.174V175.628C457.275 177.764 453.408 178 453.408 178V152.423C454.719 152.423 456.008 152.332 457.275 152.174Z" fill="#F9D026"/>
<path d="M453.408 178C453.408 178 449.541 177.764 449.541 175.628V152.174C450.809 152.332 452.098 152.423 453.408 152.423V178Z" fill="#E07934"/>
<path d="M448.686 6.3286C449.035 5.09905 449.372 3.91812 449.691 2.80375C449.723 2.68932 449.76 2.579 449.801 2.47168C449.76 2.579 449.723 2.68969 449.691 2.80412C449.372 3.91812 449.036 5.09905 448.686 6.3286Z" fill="#587853"/>
<path d="M449.804 2.46423C450.177 1.4785 450.862 0.788186 451.674 0.394043C450.863 0.788186 450.177 1.4785 449.804 2.46423Z" fill="#587853"/>
<path d="M453.407 125.35V-0.000488281C454.999 -0.000488281 456.589 0.934386 457.124 2.80376C465.345 31.5422 484.348 100.265 484.348 121.482C484.348 137.259 472.536 150.269 457.275 152.173C456.007 152.332 454.718 152.423 453.407 152.423V125.35Z" fill="#F9D026"/>
<path d="M422.59 118.195C424.159 94.8986 440.446 35.3205 448.686 6.32861C449.036 5.09944 449.373 3.91813 449.691 2.80376C449.724 2.68933 449.761 2.57864 449.801 2.47132C449.802 2.46907 449.803 2.46646 449.804 2.46384C450.177 1.47811 450.863 0.787797 451.674 0.393655C451.854 0.30615 452.041 0.232856 452.231 0.17452C452.422 0.116184 452.617 0.0724319 452.814 0.0428899C453.01 0.0133479 453.209 -0.000488281 453.408 -0.000488281V125.35V152.422C452.098 152.422 450.809 152.332 449.541 152.173C449.259 152.138 448.976 152.108 448.696 152.066C444.599 151.44 440.767 150.01 437.365 147.943C436.939 147.685 436.521 147.416 436.109 147.138C432.406 144.636 429.273 141.353 426.947 137.526C426.172 136.25 425.487 134.914 424.899 133.525C424.508 132.6 424.16 131.651 423.859 130.683C422.955 127.776 422.468 124.686 422.468 121.482C422.468 120.488 422.509 119.389 422.59 118.195Z" fill="#E07934"/>
<path d="M109.571 92.9811C109.571 87.1874 104.874 82.4903 99.08 82.4903H92.1409C90.2449 82.4903 88.6807 81.1812 88.1176 79.3705C86.7892 75.1001 82.8059 71.9995 78.0984 71.9995H44.5279C38.7342 71.9995 34.0371 76.6966 34.0371 82.4903V107.668H109.571V92.9811Z" fill="#F5C042"/>
<path d="M101.179 103.471C101.179 97.6776 96.4817 92.9806 90.688 92.9806H85.2159C82.6042 92.9806 80.3904 91.3023 79.3729 88.8969C77.7802 85.1316 74.0517 82.4897 69.7064 82.4897H36.1359C35.4174 82.4897 34.7158 82.5634 34.0377 82.701V97.1771H23.5469V113.962C23.5469 119.756 28.2439 124.453 34.0377 124.453H65.5101V107.668H101.179V103.471Z" fill="#F9D026"/>
<path d="M71.8051 122.355V132.846C71.8051 136.317 68.9814 139.14 65.5105 139.14H63.4123V120.257H59.216V130.748H48.7252C45.2543 130.748 42.4307 127.924 42.4307 124.453V111.864H38.2344V124.453C38.2344 130.238 42.9407 134.944 48.7252 134.944H59.216V181.104H63.4123V143.337H65.5105C71.295 143.337 76.0013 138.63 76.0013 132.846V122.355H71.8051Z" fill="#E07934"/>
<path d="M42.4307 111.864H38.2344V118.159H42.4307V111.864Z" fill="#CC621A"/>
<path d="M63.4131 120.256H59.2168V128.649H63.4131V120.256Z" fill="#CC621A"/>
<path d="M76.001 122.354H71.8047V128.649H76.001V122.354Z" fill="#CC621A"/>
<path d="M54.5678 82.4897H25.6445C20.937 82.4897 16.9536 85.5905 15.6252 89.8607C15.0622 91.6712 13.498 92.9806 11.602 92.9806H11.4083C5.92924 92.9806 1.03608 96.9865 0.516028 102.441C-0.0805543 108.698 4.82354 113.962 10.9574 113.962H40.3316C45.0391 113.962 49.0224 110.861 50.3508 106.591C50.9139 104.781 52.4783 103.471 54.3741 103.471H55.0187C61.1525 103.471 66.0568 98.2069 65.46 91.95C64.94 86.4954 60.0468 82.4897 54.5678 82.4897Z" fill="#E07934"/>
<path d="M111.219 92.981H90.688C85.9805 92.981 81.9972 96.0818 80.6688 100.352C80.1057 102.162 78.5413 103.472 76.6455 103.472H65.961C60.482 103.472 55.5888 107.478 55.0688 112.932C54.4722 119.189 59.3763 124.453 65.5101 124.453H86.4917C91.1993 124.453 95.1826 121.352 96.511 117.082C97.0741 115.272 98.6385 113.962 100.534 113.962H111.67C117.804 113.962 122.708 108.698 122.111 102.441C121.591 96.9866 116.698 92.981 111.219 92.981Z" fill="#E07934"/>
<path d="M21.4976 102.441C22.0177 96.9862 26.9109 92.9806 32.3899 92.9806H32.5836C34.4796 92.9806 36.0438 91.6709 36.6069 89.8607C37.9353 85.5903 41.9186 82.4897 46.6261 82.4897H25.6445C20.937 82.4897 16.9536 85.5903 15.6252 89.8607C15.0622 91.6709 13.4977 92.9806 11.602 92.9806H11.4083C5.929 92.9806 1.03608 96.9862 0.516028 102.441C-0.0805543 108.698 4.82354 113.962 10.9574 113.962H31.939C25.8052 113.962 20.9011 108.698 21.4976 102.441Z" fill="#F9D026"/>
<path d="M65.5596 112.932C66.0796 107.478 70.9728 103.472 76.4518 103.472H65.961C60.4817 103.472 55.5888 107.478 55.0688 112.932C54.4722 119.189 59.3763 124.454 65.5101 124.454H76.0009C69.8671 124.454 64.963 119.189 65.5596 112.932Z" fill="#F9D026"/>
<path d="M91.1586 100.352C92.487 96.0815 96.4703 92.981 101.178 92.981H90.687C85.9795 92.981 81.9962 96.0815 80.6678 100.352C80.1047 102.162 78.5403 103.472 76.6445 103.472H87.1353C89.0313 103.472 90.5955 102.162 91.1586 100.352Z" fill="#F9D026"/>
</svg>
