<svg width="186" height="74" viewBox="0 0 186 74" fill="none" xmlns="http://www.w3.org/2000/svg">
<path d="M139.636 60.7029H134.482V71.0073H139.636V60.7029Z" fill="#193C6F"/>
<path d="M157.666 59.3748H152.52V69.6792H157.666V59.3748Z" fill="#193C6F"/>
<path d="M139.636 11.47H134.482V27.3526H139.636V11.47Z" fill="white"/>
<path d="M157.665 26.9254H75.8879L62.3652 8.89404L66.842 40.4482L113.081 45.0004C116.373 50.5771 126.407 62.9373 135.132 62.9373C139.188 62.9373 153.609 62.9827 157.665 62.9827C167.626 62.9827 175.701 54.9119 175.701 44.9552C175.7 34.9978 167.626 26.9254 157.665 26.9254Z" fill="#E7BB00"/>
<path d="M183.426 11.4709H90.6979C89.2756 11.4709 88.1211 12.6235 88.1211 14.0461C88.1211 15.4686 89.2756 16.6212 90.6979 16.6212H183.426C184.845 16.6212 185.999 15.4686 185.999 14.0461C185.999 12.6235 184.845 11.4709 183.426 11.4709Z" fill="white"/>
<path d="M178.274 65.5634C178.274 64.1372 177.119 62.9824 175.701 62.9824C174.275 62.9824 173.12 64.1369 173.12 65.5634C173.12 66.9821 171.965 68.1366 170.547 68.1366H163.261H119.031V73.2907H170.547C174.814 73.2907 178.274 69.8269 178.274 65.5634Z" fill="#656D78"/>
<path d="M152.224 38.9727C156.97 43.7738 164.856 45.8303 175.696 45.1133C175.696 45.0604 175.7 45.0076 175.7 44.9549C175.7 34.9977 167.625 26.9253 157.664 26.9253H147.326C147.432 29.7156 148.217 34.911 152.224 38.9727Z" fill="#E77D00"/>
<path d="M62.3652 8.89404L66.8418 40.4482L86.9749 42.261L62.3652 8.89404Z" fill="#F9D026"/>
<path fill-rule="evenodd" clip-rule="evenodd" d="M28.2262 26.4771L1.99911 0.25L0.332031 4.59481L23.6145 27.7854L0.499115 52.75L1.9991 57.25L26.9266 30.3283C28.4209 30.5428 29.9527 30.8079 31.5405 31.0828L31.9119 31.147C33.8645 31.4847 35.8938 31.8304 37.9469 32.0865C42.0496 32.5982 46.3728 32.7708 50.6767 31.7802C52.4859 31.3638 54.1292 30.9283 55.6914 30.5142L55.6916 30.5142C59.9226 29.3927 63.5597 28.4287 68.2898 28.4287C69.3944 28.4287 70.2898 27.5333 70.2898 26.4287C70.2898 25.3242 69.3944 24.4287 68.2898 24.4287C62.9966 24.4287 58.6814 25.5739 54.2941 26.7383C52.811 27.1319 51.3197 27.5277 49.7796 27.8821C46.1323 28.7216 42.341 28.6036 38.442 28.1172C36.4942 27.8743 34.5508 27.544 32.5935 27.2055L32.2038 27.1381C30.8799 26.9089 29.5468 26.6781 28.2262 26.4771Z" fill="white"/>
</svg>
