<svg width="125" height="66" viewBox="0 0 125 66" fill="none" xmlns="http://www.w3.org/2000/svg">
<path d="M77.6363 52.7029H72.4824V63.0073H77.6363V52.7029Z" fill="#193C6F"/>
<path d="M95.666 51.3748H90.5195V61.6792H95.666V51.3748Z" fill="#193C6F"/>
<path d="M77.6363 3.46997H72.4824V19.3526H77.6363V3.46997Z" fill="white"/>
<path d="M95.6648 18.9254H13.8879L0.365234 0.894043L4.84203 32.4482L51.0809 37.0004C54.3727 42.5771 64.4074 54.9373 73.1323 54.9373C77.1882 54.9373 91.6092 54.9827 95.6651 54.9827C105.626 54.9827 113.701 46.9119 113.701 36.9552C113.7 26.9978 105.626 18.9254 95.6648 18.9254Z" fill="#A0D468"/>
<path d="M121.428 3.47095H28.6999C27.2776 3.47095 26.123 4.62353 26.123 6.04609C26.123 7.46865 27.2776 8.62123 28.6999 8.62123H121.428C122.847 8.62123 124.001 7.46865 124.001 6.04609C124.001 4.62353 122.847 3.47095 121.428 3.47095Z" fill="white"/>
<path d="M116.274 57.5634C116.274 56.1372 115.119 54.9824 113.701 54.9824C112.275 54.9824 111.12 56.1369 111.12 57.5634C111.12 58.9821 109.965 60.1366 108.547 60.1366H101.261H57.0312V65.2907H108.547C112.814 65.2907 116.274 61.8269 116.274 57.5634Z" fill="#656D78"/>
<path d="M90.2239 30.9727C94.9704 35.7738 102.856 37.8303 113.696 37.1133C113.696 37.0604 113.7 37.0076 113.7 36.9549C113.7 26.9977 105.625 18.9253 95.6644 18.9253H85.3262C85.4319 21.7156 86.2168 26.911 90.2239 30.9727Z" fill="#4FC2E9"/>
<path d="M0.365234 0.894043L4.84179 32.4482L24.9749 34.261L0.365234 0.894043Z" fill="#8CC153"/>
</svg>
