<svg width="187" height="68" viewBox="0 0 187 68" fill="none" xmlns="http://www.w3.org/2000/svg">
<path d="M139.636 54.7029H134.482V65.0073H139.636V54.7029Z" fill="#193C6F"/>
<path d="M157.666 53.3748H152.52V63.6792H157.666V53.3748Z" fill="#193C6F"/>
<path d="M139.636 5.46997H134.482V21.3526H139.636V5.46997Z" fill="white"/>
<path d="M157.665 20.9254H75.8879L62.3652 2.89404L66.842 34.4482L113.081 39.0004C116.373 44.5771 126.407 56.9373 135.132 56.9373C139.188 56.9373 153.609 56.9827 157.665 56.9827C167.626 56.9827 175.701 48.9119 175.701 38.9552C175.7 28.9978 167.626 20.9254 157.665 20.9254Z" fill="#A0D468"/>
<path d="M183.428 5.47095H90.6999C89.2776 5.47095 88.123 6.62353 88.123 8.04609C88.123 9.46865 89.2776 10.6212 90.6999 10.6212H183.428C184.847 10.6212 186.001 9.46865 186.001 8.04609C186.001 6.62353 184.847 5.47095 183.428 5.47095Z" fill="white"/>
<path d="M178.274 59.5634C178.274 58.1372 177.119 56.9824 175.701 56.9824C174.275 56.9824 173.12 58.1369 173.12 59.5634C173.12 60.9821 171.965 62.1366 170.547 62.1366H163.261H119.031V67.2907H170.547C174.814 67.2907 178.274 63.8269 178.274 59.5634Z" fill="#656D78"/>
<path d="M152.224 32.9727C156.97 37.7738 164.856 39.8303 175.696 39.1133C175.696 39.0604 175.7 39.0076 175.7 38.9549C175.7 28.9977 167.625 20.9253 157.664 20.9253H147.326C147.432 23.7156 148.217 28.911 152.224 32.9727Z" fill="#4FC2E9"/>
<path d="M62.3652 2.89404L66.8418 34.4482L86.9749 36.261L62.3652 2.89404Z" fill="#8CC153"/>
<path fill-rule="evenodd" clip-rule="evenodd" d="M28.2262 26.5018L1.99911 0.274658L0.332031 4.61947L23.6145 27.81L0.499115 52.7746L1.9991 57.2746L26.9266 30.353C28.4209 30.5674 29.9527 30.8326 31.5405 31.1074L31.9119 31.1717C33.8645 31.5094 35.8938 31.855 37.9469 32.1111C42.0496 32.6229 46.3728 32.7955 50.6767 31.8049C52.4858 31.3885 54.1289 30.953 55.6912 30.5389L55.6916 30.5388C59.9226 29.4174 63.5597 28.4534 68.2898 28.4534C69.3943 28.4534 70.2898 27.5579 70.2898 26.4534C70.2898 25.3488 69.3943 24.4534 68.2898 24.4534C62.9966 24.4534 58.6814 25.5986 54.2941 26.7629L54.2939 26.763C52.8109 27.1566 51.3196 27.5523 49.7796 27.9068C46.1323 28.7462 42.3409 28.6282 38.442 28.1419C36.4942 27.8989 34.5508 27.5687 32.5935 27.2302L32.2038 27.1628C30.8799 26.9335 29.5468 26.7027 28.2262 26.5018Z" fill="white"/>
</svg>

