<svg width="163" height="115" viewBox="0 0 163 115" fill="none" xmlns="http://www.w3.org/2000/svg">
<path d="M123.557 28.7749C123.557 27.4632 122.494 26.3987 121.18 26.3987H118.5C117.188 26.3987 116.125 27.4632 116.125 28.7749C116.125 30.0866 117.188 31.1512 118.5 31.1512H121.18C122.494 31.1512 123.557 30.0866 123.557 28.7749Z" fill="white"/>
<path d="M116.457 14.5249C116.457 13.2135 115.394 12.1489 114.083 12.1489H111.273C109.962 12.1489 108.899 13.2135 108.899 14.5249C108.899 15.8366 109.962 16.9012 111.273 16.9012H114.083C115.394 16.9012 116.457 15.8366 116.457 14.5249Z" fill="white"/>
<path d="M123.557 85.7754C123.557 84.4637 122.494 83.3992 121.18 83.3992H118.5C117.188 83.3992 116.125 84.4637 116.125 85.7754C116.125 87.0871 117.188 88.1514 118.5 88.1514H121.18C122.494 88.1514 123.557 87.0871 123.557 85.7754Z" fill="white"/>
<path d="M116.457 100.025C116.457 98.7135 115.394 97.6489 114.083 97.6489H111.273C109.962 97.6489 108.899 98.7135 108.899 100.025C108.899 101.337 109.962 102.401 111.273 102.401H114.083C115.394 102.401 116.457 101.337 116.457 100.025Z" fill="white"/>
<path d="M90.9949 2.6509C90.9949 2.10805 91.1829 1.57945 91.5307 1.1515C91.9829 0.598408 92.6578 0.274658 93.3745 0.274658L102.872 0.274658C103.766 0.274658 104.584 0.779209 104.991 1.57589L127.879 46.7022C128.472 47.8712 128.006 49.3009 126.835 49.8925C125.666 50.4875 124.236 50.0177 123.643 48.8487L105.196 47.8608C105.464 49.1444 104.639 50.4004 103.355 50.6683C102.071 50.9362 100.812 50.1116 100.548 48.8278L91.0468 3.1343C91.0159 2.97443 90.9949 2.81099 90.9949 2.6509Z" fill="white"/>
<path d="M90.9967 111.899C90.9967 111.739 91.0176 111.579 91.0488 111.415L100.55 65.7216C100.814 64.438 102.074 63.6134 103.357 63.8813C104.641 64.1492 105.466 65.405 105.198 66.6886L123.645 65.7005C124.238 64.5317 125.668 64.0621 126.837 64.6568C128.008 65.248 128.474 66.6779 127.881 67.8505L104.993 112.973C104.586 113.774 103.768 114.275 102.874 114.275H93.3765C92.6597 114.275 91.9848 113.954 91.5326 113.398C91.1846 112.97 90.9967 112.442 90.9967 111.899Z" fill="white"/>
<path d="M83.6201 50.5537C84.0098 49.7744 83.9472 48.8419 83.4462 48.1254L73.9453 34.5397C73.4999 33.9031 72.7727 33.5239 72.0005 33.5239H62.4956C61.7301 33.5239 61.0135 33.8927 60.5682 34.5154C60.2761 34.926 60.1229 35.4096 60.1229 35.9002C60.1229 36.1576 60.1648 36.415 60.248 36.6621L65.0005 50.6651C65.3345 51.6532 66.2739 52.3072 67.3175 52.2758L81.5674 51.8619C82.4373 51.8376 83.2305 51.3331 83.6201 50.5537Z" fill="white"/>
<path d="M73.9453 80.0111L83.4462 66.4254C83.9472 65.7087 84.0098 64.7766 83.6201 63.9973C83.2305 63.218 82.4373 62.7135 81.5674 62.6892L67.3175 62.2753C66.2737 62.2439 65.3345 62.898 65.0005 63.886L60.248 77.8889C60.1645 78.1359 60.1229 78.3935 60.1229 78.6509C60.1229 79.1414 60.2761 79.625 60.5682 80.0356C61.0135 80.6584 61.7303 81.0271 62.4956 81.0271H72.0005C72.7727 81.0271 73.4999 80.6479 73.9453 80.0111Z" fill="white"/>
<path d="M60.123 64.292V50.0416C60.123 48.7578 61.1424 47.7073 62.4263 47.669C65.627 47.5714 140.892 45.2927 145.623 45.2927C148.595 45.2927 152.543 46.4165 155.683 48.1595C159.917 50.5112 162.248 53.712 162.248 57.1668C162.248 60.6216 159.917 63.8224 155.683 66.1706C152.543 67.9136 148.595 69.0409 145.623 69.0409C140.892 69.0409 65.627 66.7622 62.4263 66.6647C61.1424 66.6261 60.123 65.5754 60.123 64.292Z" fill="#CD2D55"/>
<path d="M146.464 64.1386C146.739 64.0342 147.708 63.6098 148.63 62.5139C149.425 61.5676 150.375 59.8733 150.375 57.1664C150.375 52.8281 147.917 50.7442 146.465 50.1944C145.236 49.7318 143.866 50.351 143.403 51.5756C143.299 51.8539 143.248 52.1358 143.248 52.4142C143.248 53.3395 143.793 54.2128 144.685 54.5989C144.831 54.6824 145.625 55.225 145.625 57.1664C145.625 59.1078 144.831 59.6504 144.685 59.7339C143.525 60.2349 142.953 61.564 143.403 62.7572C143.867 63.9821 145.238 64.6013 146.464 64.1386Z" fill="white"/>
<path d="M57.7519 57.1665C57.7519 55.8548 58.8131 54.7903 60.1246 54.7903H76.7471C78.0622 54.7903 79.127 55.8548 79.127 57.1665C79.127 58.4782 78.0624 59.5428 76.7471 59.5428H60.1246C58.8129 59.5428 57.7519 58.478 57.7519 57.1665Z" fill="white"/>
<path fill-rule="evenodd" clip-rule="evenodd" d="M28.2262 55.5018L1.99911 29.2747L0.332031 33.6195L23.6145 56.81L0.499115 81.7746L1.9991 86.2746L26.9266 59.353C28.4209 59.5674 29.9527 59.8326 31.5405 60.1074L31.9119 60.1717C33.8645 60.5094 35.8938 60.855 37.9469 61.1111C42.0496 61.6229 46.3728 61.7955 50.6767 60.8049C52.4859 60.3885 54.1292 59.9529 55.6914 59.5389L55.6916 59.5388C59.9226 58.4174 63.5597 57.4534 68.2898 57.4534C69.3944 57.4534 70.2898 56.5579 70.2898 55.4534C70.2898 54.3488 69.3944 53.4534 68.2898 53.4534C62.9966 53.4534 58.6814 54.5986 54.2941 55.7629C52.811 56.1565 51.3197 56.5523 49.7796 56.9068C46.1323 57.7462 42.341 57.6282 38.442 57.1419C36.4942 56.8989 34.5508 56.5687 32.5935 56.2302L32.2038 56.1628C30.8799 55.9335 29.5468 55.7027 28.2262 55.5018Z" fill="white"/>
</svg>

