<svg width="106" height="115" viewBox="0 0 106 115" fill="none" xmlns="http://www.w3.org/2000/svg">
<path d="M66.5566 28.7749C66.5566 27.4632 65.4939 26.3987 64.1804 26.3987H61.4998C60.1883 26.3987 59.1253 27.4632 59.1253 28.7749C59.1253 30.0866 60.1881 31.1512 61.4998 31.1512H64.1804C65.4939 31.1512 66.5566 30.0866 66.5566 28.7749Z" fill="white"/>
<path d="M59.457 14.5249C59.457 13.2135 58.3943 12.1489 57.0826 12.1489H54.2733C52.9616 12.1489 51.8988 13.2135 51.8988 14.5249C51.8988 15.8366 52.9616 16.9012 54.2733 16.9012H57.0826C58.394 16.9012 59.457 15.8366 59.457 14.5249Z" fill="white"/>
<path d="M66.5566 85.7754C66.5566 84.4637 65.4939 83.3992 64.1804 83.3992H61.4998C60.1883 83.3992 59.1253 84.4637 59.1253 85.7754C59.1253 87.0871 60.1881 88.1514 61.4998 88.1514H64.1804C65.4939 88.1514 66.5566 87.0871 66.5566 85.7754Z" fill="white"/>
<path d="M59.457 100.025C59.457 98.7135 58.3943 97.6489 57.0826 97.6489H54.2733C52.9616 97.6489 51.8988 98.7135 51.8988 100.025C51.8988 101.337 52.9616 102.401 54.2733 102.401H57.0826C58.394 102.401 59.457 101.337 59.457 100.025Z" fill="white"/>
<path d="M33.9949 2.6509C33.9949 2.10805 34.1829 1.57945 34.5307 1.1515C34.9829 0.598408 35.6578 0.274658 36.3745 0.274658L45.8719 0.274658C46.7661 0.274658 47.5837 0.779209 47.9908 1.57589L70.8792 46.7022C71.4724 47.8712 71.0062 49.3009 69.8354 49.8925C68.6664 50.4875 67.2365 50.0177 66.6433 48.8487L48.1958 47.8608C48.4637 49.1444 47.6392 50.4004 46.3553 50.6683C45.0714 50.9362 43.8121 50.1116 43.5478 48.8278L34.0468 3.1343C34.0159 2.97443 33.9949 2.81099 33.9949 2.6509Z" fill="white"/>
<path d="M33.9967 111.899C33.9967 111.739 34.0176 111.579 34.0488 111.415L43.5497 65.7216C43.8142 64.438 45.0736 63.6134 46.3573 63.8813C47.6409 64.1492 48.4656 65.405 48.1978 66.6886L66.6453 65.7005C67.2385 64.5317 68.6684 64.0621 69.8374 64.6568C71.0081 65.248 71.4744 66.6779 70.8812 67.8505L47.9927 112.973C47.5857 113.774 46.7681 114.275 45.8739 114.275H36.3765C35.6597 114.275 34.9848 113.954 34.5326 113.398C34.1846 112.97 33.9967 112.442 33.9967 111.899Z" fill="white"/>
<path d="M26.6221 50.5537C27.0117 49.7744 26.9492 48.8419 26.4482 48.1254L16.9472 34.5397C16.5019 33.9031 15.7747 33.5239 15.0025 33.5239H5.49753C4.73202 33.5239 4.0155 33.8927 3.57018 34.5154C3.27805 34.926 3.12486 35.4096 3.12486 35.9002C3.12486 36.1576 3.16671 36.415 3.24999 36.6621L8.00247 50.6651C8.33646 51.6532 9.27587 52.3072 10.3195 52.2758L24.5694 51.8619C25.4393 51.8376 26.2324 51.3331 26.6221 50.5537Z" fill="#93D789"/>
<path d="M16.9472 80.0111L26.4482 66.4254C26.9492 65.7087 27.0117 64.7766 26.6221 63.9973C26.2324 63.218 25.4393 62.7135 24.5694 62.6892L10.3195 62.2753C9.27565 62.2439 8.33646 62.898 8.00247 63.886L3.24999 77.8889C3.16649 78.1359 3.12486 78.3935 3.12486 78.6509C3.12486 79.1414 3.27805 79.625 3.57018 80.0356C4.0155 80.6584 4.73224 81.0271 5.49753 81.0271H15.0025C15.7747 81.0271 16.5019 80.6479 16.9472 80.0111Z" fill="#93D789"/>
<path d="M3.12499 64.292V50.0416C3.12499 48.7578 4.14434 47.7073 5.42821 47.669C8.62896 47.5714 83.8939 45.2927 88.6254 45.2927C91.5966 45.2927 95.5453 46.4165 98.6851 48.1595C102.919 50.5112 105.25 53.712 105.25 57.1668C105.25 60.6216 102.919 63.8224 98.6851 66.1706C95.5453 67.9136 91.5966 69.0409 88.6254 69.0409C83.8939 69.0409 8.62896 66.7622 5.42821 66.6647C4.14434 66.6261 3.12499 65.5754 3.12499 64.292Z" fill="#93D789"/>
<path d="M89.4644 64.1386C89.7392 64.0342 90.7082 63.6098 91.6302 62.5139C92.4251 61.5676 93.375 59.8733 93.375 57.1664C93.375 52.8281 90.917 50.7442 89.4646 50.1944C88.2364 49.7318 86.8657 50.351 86.403 51.5756C86.2986 51.8539 86.2483 52.1358 86.2483 52.4142C86.2483 53.3395 86.7927 54.2128 87.6851 54.5989C87.8312 54.6824 88.6245 55.225 88.6245 57.1664C88.6245 59.1078 87.8314 59.6504 87.6851 59.7339C86.5248 60.2349 85.9526 61.564 86.4032 62.7572C86.8673 63.9821 88.238 64.6013 89.4644 64.1386Z" fill="#F5F7FA"/>
<path d="M0.751892 57.1665C0.751892 55.8548 1.8131 54.7903 3.12457 54.7903H19.7471C21.0622 54.7903 22.127 55.8548 22.127 57.1665C22.127 58.4782 21.0624 59.5428 19.7471 59.5428H3.12457C1.81288 59.5428 0.751892 58.478 0.751892 57.1665Z" fill="#93D789"/>
</svg>
