<svg width="165" height="115" viewBox="0 0 165 115" fill="none" xmlns="http://www.w3.org/2000/svg">
<path d="M125.557 28.7749C125.557 27.4632 124.494 26.3987 123.18 26.3987H120.5C119.188 26.3987 118.125 27.4632 118.125 28.7749C118.125 30.0866 119.188 31.1512 120.5 31.1512H123.18C124.494 31.1512 125.557 30.0866 125.557 28.7749Z" fill="white"/>
<path d="M118.457 14.5249C118.457 13.2135 117.394 12.1489 116.083 12.1489H113.273C111.962 12.1489 110.899 13.2135 110.899 14.5249C110.899 15.8366 111.962 16.9012 113.273 16.9012H116.083C117.394 16.9012 118.457 15.8366 118.457 14.5249Z" fill="white"/>
<path d="M125.557 85.7754C125.557 84.4637 124.494 83.3992 123.18 83.3992H120.5C119.188 83.3992 118.125 84.4637 118.125 85.7754C118.125 87.0871 119.188 88.1514 120.5 88.1514H123.18C124.494 88.1514 125.557 87.0871 125.557 85.7754Z" fill="white"/>
<path d="M118.457 100.025C118.457 98.7135 117.394 97.6489 116.083 97.6489H113.273C111.962 97.6489 110.899 98.7135 110.899 100.025C110.899 101.337 111.962 102.401 113.273 102.401H116.083C117.394 102.401 118.457 101.337 118.457 100.025Z" fill="white"/>
<path d="M92.9949 2.6509C92.9949 2.10805 93.1829 1.57945 93.5307 1.1515C93.9829 0.598408 94.6578 0.274658 95.3745 0.274658L104.872 0.274658C105.766 0.274658 106.584 0.779209 106.991 1.57589L129.879 46.7022C130.472 47.8712 130.006 49.3009 128.835 49.8925C127.666 50.4875 126.236 50.0177 125.643 48.8487L107.196 47.8608C107.464 49.1444 106.639 50.4004 105.355 50.6683C104.071 50.9362 102.812 50.1116 102.548 48.8278L93.0468 3.1343C93.0159 2.97443 92.9949 2.81099 92.9949 2.6509Z" fill="white"/>
<path d="M92.9967 111.899C92.9967 111.739 93.0176 111.579 93.0488 111.415L102.55 65.7216C102.814 64.438 104.074 63.6134 105.357 63.8813C106.641 64.1492 107.466 65.405 107.198 66.6886L125.645 65.7005C126.238 64.5317 127.668 64.0621 128.837 64.6568C130.008 65.248 130.474 66.6779 129.881 67.8505L106.993 112.973C106.586 113.774 105.768 114.275 104.874 114.275H95.3765C94.6597 114.275 93.9848 113.954 93.5326 113.398C93.1846 112.97 92.9967 112.442 92.9967 111.899Z" fill="white"/>
<path d="M85.6201 50.5537C86.0098 49.7744 85.9472 48.8419 85.4462 48.1254L75.9453 34.5397C75.4999 33.9031 74.7727 33.5239 74.0005 33.5239H64.4956C63.7301 33.5239 63.0135 33.8927 62.5682 34.5154C62.2761 34.926 62.1229 35.4096 62.1229 35.9002C62.1229 36.1576 62.1648 36.415 62.248 36.6621L67.0005 50.6651C67.3345 51.6532 68.2739 52.3072 69.3175 52.2758L83.5674 51.8619C84.4373 51.8376 85.2305 51.3331 85.6201 50.5537Z" fill="#93D789"/>
<path d="M75.9453 80.0111L85.4462 66.4254C85.9472 65.7087 86.0098 64.7766 85.6201 63.9973C85.2305 63.218 84.4373 62.7135 83.5674 62.6892L69.3175 62.2753C68.2737 62.2439 67.3345 62.898 67.0005 63.886L62.248 77.8889C62.1645 78.1359 62.1229 78.3935 62.1229 78.6509C62.1229 79.1414 62.2761 79.625 62.5682 80.0356C63.0135 80.6584 63.7303 81.0271 64.4956 81.0271H74.0005C74.7727 81.0271 75.4999 80.6479 75.9453 80.0111Z" fill="#93D789"/>
<path d="M62.123 64.292V50.0416C62.123 48.7578 63.1424 47.7073 64.4263 47.669C67.627 47.5714 142.892 45.2927 147.623 45.2927C150.595 45.2927 154.543 46.4165 157.683 48.1595C161.917 50.5112 164.248 53.712 164.248 57.1668C164.248 60.6216 161.917 63.8224 157.683 66.1706C154.543 67.9136 150.595 69.0409 147.623 69.0409C142.892 69.0409 67.627 66.7622 64.4263 66.6647C63.1424 66.6261 62.123 65.5754 62.123 64.292Z" fill="#93D789"/>
<path d="M148.464 64.1386C148.739 64.0342 149.708 63.6098 150.63 62.5139C151.425 61.5676 152.375 59.8733 152.375 57.1664C152.375 52.8281 149.917 50.7442 148.465 50.1944C147.236 49.7318 145.866 50.351 145.403 51.5756C145.299 51.8539 145.248 52.1358 145.248 52.4142C145.248 53.3395 145.793 54.2128 146.685 54.5989C146.831 54.6824 147.625 55.225 147.625 57.1664C147.625 59.1078 146.831 59.6504 146.685 59.7339C145.525 60.2349 144.953 61.564 145.403 62.7572C145.867 63.9821 147.238 64.6013 148.464 64.1386Z" fill="#F5F7FA"/>
<path d="M59.7519 57.1665C59.7519 55.8548 60.8131 54.7903 62.1246 54.7903H78.7471C80.0622 54.7903 81.127 55.8548 81.127 57.1665C81.127 58.4782 80.0624 59.5428 78.7471 59.5428H62.1246C60.8129 59.5428 59.7519 58.478 59.7519 57.1665Z" fill="#93D789"/>
<path fill-rule="evenodd" clip-rule="evenodd" d="M28.2262 51.4769L1.99911 25.2498L0.332031 29.5946L23.6145 52.7851L0.499115 77.7497L1.9991 82.2497L26.9266 55.3281C28.4209 55.5425 29.9527 55.8077 31.5405 56.0825L31.9119 56.1468C33.8645 56.4845 35.8938 56.8301 37.9469 57.0862C42.0496 57.598 46.3728 57.7706 50.6767 56.78C52.4859 56.3636 54.1292 55.928 55.6914 55.514L55.6916 55.5139C59.9226 54.3925 63.5597 53.4285 68.2898 53.4285C69.3944 53.4285 70.2898 52.533 70.2898 51.4285C70.2898 50.3239 69.3944 49.4285 68.2898 49.4285C62.9966 49.4285 58.6814 50.5737 54.2941 51.738C52.811 52.1316 51.3197 52.5274 49.7796 52.8819C46.1323 53.7213 42.341 53.6033 38.442 53.117C36.4942 52.874 34.5508 52.5438 32.5935 52.2053L32.2038 52.1379C30.8799 51.9086 29.5468 51.6778 28.2262 51.4769Z" fill="white"/>
</svg>
