<svg
							width="74"
							height="75"
							viewBox="0 0 74 75"
							fill="none"
							xmlns="http://www.w3.org/2000/svg"
						>
							<path
								d="M10.192 12.9747L11.0625 16.0851L35.6857 9.19416L34.8153 6.08377L10.192 12.9747Z"
								fill="#EBEBEB"
							/>
							<path
								d="M40.7787 10.8995L56.2588 31.5302L58.8425 29.5915L43.3624 8.9608L40.7787 10.8995Z"
								fill="#EBEBEB"
							/>
							<path
								d="M60.1726 38.6606L64.2842 49.5446L67.3057 48.4031L63.1942 37.5192L60.1726 38.6606Z"
								fill="#EBEBEB"
							/>
							<path
								d="M53.5904 63.571L55.7861 65.9398L65.2487 57.1688L63.053 54.8L53.5904 63.571Z"
								fill="#EBEBEB"
							/>
							<path
								d="M6.46139 22.1603C10.0299 22.1603 12.9228 19.2675 12.9228 15.6989C12.9228 12.1304 10.0299 9.23755 6.46139 9.23755C2.89286 9.23755 0 12.1304 0 15.6989C0 19.2675 2.89286 22.1603 6.46139 22.1603Z"
								fill="#F5F5F5"
							/>
							<path
								d="M12.9215 15.6994C12.9215 19.2675 10.0289 22.1599 6.46094 22.1599C6.46094 20.1527 6.46094 11.2368 6.46094 9.23877C10.029 9.23906 12.9215 12.1315 12.9215 15.6994Z"
								fill="#ECECEC"
							/>
							<path
								d="M39.4653 12.9228C43.0338 12.9228 45.9267 10.0299 45.9267 6.46139C45.9267 2.89286 43.0338 0 39.4653 0C35.8968 0 33.0039 2.89286 33.0039 6.46139C33.0039 10.0299 35.8968 12.9228 39.4653 12.9228Z"
								fill="#F5F5F5"
							/>
							<path
								d="M45.9244 6.46066C45.9244 10.0288 43.0318 12.9212 39.4639 12.9212C39.4639 10.914 39.4639 1.99806 39.4639 0C43.032 0.000145092 45.9244 2.8927 45.9244 6.46066Z"
								fill="#ECECEC"
							/>
							<path
								d="M60.1753 40.4948C63.7438 40.4948 66.6366 37.6019 66.6366 34.0334C66.6366 30.4649 63.7438 27.572 60.1753 27.572C56.6067 27.572 53.7139 30.4649 53.7139 34.0334C53.7139 37.6019 56.6067 40.4948 60.1753 40.4948Z"
								fill="#F5F5F5"
							/>
							<path
								d="M66.6353 34.0331C66.6353 37.6012 63.7428 40.4936 60.1748 40.4936C60.1748 38.4864 60.1748 29.5705 60.1748 27.5728C63.7429 27.5725 66.6353 30.465 66.6353 34.0331Z"
								fill="#ECECEC"
							/>
							<path
								d="M67.3315 59.496C70.9 59.496 73.7929 56.6032 73.7929 53.0346C73.7929 49.4661 70.9 46.5732 67.3315 46.5732C63.763 46.5732 60.8701 49.4661 60.8701 53.0346C60.8701 56.6032 63.763 59.496 67.3315 59.496Z"
								fill="#F5F5F5"
							/>
							<path
								d="M73.7935 53.034C73.7935 56.6021 70.901 59.4945 67.333 59.4945C67.333 57.4873 67.333 48.5714 67.333 46.5734C70.901 46.5735 73.7935 49.4661 73.7935 53.034Z"
								fill="#ECECEC"
							/>
							<path
								d="M51.5024 74.2889C55.0709 74.2889 57.9638 71.396 57.9638 67.8275C57.9638 64.2589 55.0709 61.3661 51.5024 61.3661C47.9339 61.3661 45.041 64.2589 45.041 67.8275C45.041 71.396 47.9339 74.2889 51.5024 74.2889Z"
								fill="#F5F5F5"
							/>
							<path
								d="M57.9644 67.8267C57.9644 71.3948 55.0719 74.2872 51.5039 74.2872C51.5039 72.28 51.5039 63.3641 51.5039 61.3663C55.072 61.3662 57.9644 64.2586 57.9644 67.8267Z"
								fill="#ECECEC"
							/>
						</svg>