<svg
							width="69"
							height="69"
							viewBox="0 0 69 69"
							fill="none"
							xmlns="http://www.w3.org/2000/svg"
						>
							<path
								d="M6.00413 8.58408L18.3252 23.4307L20.6315 21.5167L8.31045 6.67008L6.00413 8.58408Z"
								fill="#EBEBEB"
							/>
							<path
								d="M33.4878 42.714L60.21 50.3064L61.0291 47.4234L34.3069 39.831L33.4878 42.714Z"
								fill="#EBEBEB"
							/>
							<path
								d="M25.4086 60.3468L28.3604 60.8674L31.3233 44.0688L28.3716 43.5482L25.4086 60.3468Z"
								fill="#EBEBEB"
							/>
							<path
								d="M22.2443 29.0537L27.3848 37.9551L29.9803 36.4563L24.8399 27.5548L22.2443 29.0537Z"
								fill="#EBEBEB"
							/>
							<path
								d="M4.87984 9.75949C7.5749 9.75949 9.75968 7.57471 9.75968 4.87965C9.75968 2.18459 7.5749 -0.000183105 4.87984 -0.000183105C2.18478 -0.000183105 0 2.18459 0 4.87965C0 7.57471 2.18478 9.75949 4.87984 9.75949Z"
								fill="#F5F5F5"
							/>
							<path
								d="M9.75972 4.8797C9.75972 7.57473 7.57505 9.75954 4.87988 9.75954C4.87988 8.2433 4.87988 1.5091 4.87988 6.23455e-09C7.57505 -0.000134759 9.75972 2.18454 9.75972 4.8797Z"
								fill="#ECECEC"
							/>
							<path
								d="M21.7812 30.1426C24.4763 30.1426 26.661 27.9578 26.661 25.2628C26.661 22.5677 24.4763 20.3829 21.7812 20.3829C19.0861 20.3829 16.9014 22.5677 16.9014 25.2628C16.9014 27.9578 19.0861 30.1426 21.7812 30.1426Z"
								fill="#F5F5F5"
							/>
							<path
								d="M26.6611 25.2632C26.6611 27.9583 24.4764 30.1431 21.7812 30.1431C21.7812 28.6268 21.7812 21.8926 21.7812 20.3835C24.4764 20.3835 26.6611 22.5682 26.6611 25.2632Z"
								fill="#ECECEC"
							/>
							<path
								d="M26.2617 68.9998C28.9567 68.9998 31.1415 66.815 31.1415 64.1199C31.1415 61.4249 28.9567 59.2401 26.2617 59.2401C23.5666 59.2401 21.3818 61.4249 21.3818 64.1199C21.3818 66.815 23.5666 68.9998 26.2617 68.9998Z"
								fill="#F5F5F5"
							/>
							<path
								d="M31.1406 64.1196C31.1406 66.8146 28.9559 68.9994 26.2607 68.9994C26.2607 67.4832 26.2607 60.749 26.2607 59.2399C28.9558 59.2399 31.1406 61.4245 31.1406 64.1196Z"
								fill="#ECECEC"
							/>
							<path
								d="M64.0507 54.7184C66.7458 54.7184 68.9306 52.5336 68.9306 49.8386C68.9306 47.1435 66.7458 44.9587 64.0507 44.9587C61.3557 44.9587 59.1709 47.1435 59.1709 49.8386C59.1709 52.5336 61.3557 54.7184 64.0507 54.7184Z"
								fill="#F5F5F5"
							/>
							<path
								d="M68.9306 49.8392C68.9306 52.5343 66.7459 54.7191 64.0508 54.7191C64.0508 53.2028 64.0508 46.4686 64.0508 44.9595C66.7458 44.9595 68.9306 47.1443 68.9306 49.8392Z"
								fill="#ECECEC"
							/>
							<path
								d="M30.4648 45.1768C33.1599 45.1768 35.3446 42.992 35.3446 40.297C35.3446 37.6019 33.1599 35.4171 30.4648 35.4171C27.7697 35.4171 25.585 37.6019 25.585 40.297C25.585 42.992 27.7697 45.1768 30.4648 45.1768Z"
								fill="#F5F5F5"
							/>
							<path
								d="M35.3437 40.2968C35.3437 42.9918 33.159 45.1767 30.4639 45.1767C30.4639 43.6604 30.4639 36.9262 30.4639 35.4171C33.159 35.417 35.3437 37.6018 35.3437 40.2968Z"
								fill="#ECECEC"
							/>
						</svg>