<svg
							width="84"
							height="85"
							viewBox="0 0 84 85"
							fill="none"
							xmlns="http://www.w3.org/2000/svg"
						>
							<path
								d="M46.0354 41.8417L74.8301 52.0725L76.0576 48.6175L47.263 38.3868L46.0354 41.8417Z"
								fill="#EBEBEB"
							/>
							<path
								d="M71.3486 75.094L74.9443 75.8101L78.88 56.047L75.2843 55.331L71.3486 75.094Z"
								fill="#EBEBEB"
							/>
							<path
								d="M43.1423 69.1202L68.1436 79.3346L69.5302 75.9406L44.5289 65.7262L43.1423 69.1202Z"
								fill="#EBEBEB"
							/>
							<path
								d="M39.2387 62.1942L42.8799 62.625L45.2979 42.1881L41.6567 41.7573L39.2387 62.1942Z"
								fill="#EBEBEB"
							/>
							<path
								d="M28.1077 18.6261L41.2275 37.5977L44.2433 35.5121L31.1234 16.5405L28.1077 18.6261Z"
								fill="#EBEBEB"
							/>
							<path
								d="M8.38975 9.31775L24.4189 16.1543L25.8573 12.782L9.82807 5.94544L8.38975 9.31775Z"
								fill="#EBEBEB"
							/>
							<path
								d="M5.82317 12.0521C9.03921 12.0521 11.6463 9.44498 11.6463 6.22893C11.6463 3.01288 9.03921 0.405762 5.82317 0.405762C2.60712 0.405762 0 3.01288 0 6.22893C0 9.44498 2.60712 12.0521 5.82317 12.0521Z"
								fill="#F5F5F5"
							/>
							<path
								d="M11.6454 6.22893C11.6454 9.44494 9.03828 12.0521 5.82227 12.0521C5.82227 10.2428 5.82227 2.20648 5.82227 0.405762C9.03828 0.405762 11.6454 3.01291 11.6454 6.22893Z"
								fill="#ECECEC"
							/>
							<path
								d="M28.4277 21.692C31.6437 21.692 34.2508 19.0849 34.2508 15.8688C34.2508 12.6528 31.6437 10.0457 28.4277 10.0457C25.2116 10.0457 22.6045 12.6528 22.6045 15.8688C22.6045 19.0849 25.2116 21.692 28.4277 21.692Z"
								fill="#F5F5F5"
							/>
							<path
								d="M34.2499 15.8696C34.2499 19.0856 31.6428 21.6927 28.4268 21.6927C28.4268 19.8834 28.4268 11.8471 28.4268 10.0464C31.6428 10.0464 34.2499 12.6535 34.2499 15.8696Z"
								fill="#ECECEC"
							/>
							<path
								d="M43.9335 44.1115C47.1496 44.1115 49.7567 41.5044 49.7567 38.2884C49.7567 35.0723 47.1496 32.4652 43.9335 32.4652C40.7175 32.4652 38.1104 35.0723 38.1104 38.2884C38.1104 41.5044 40.7175 44.1115 43.9335 44.1115Z"
								fill="#F5F5F5"
							/>
							<path
								d="M49.7577 38.2879C49.7577 41.5039 47.1506 44.1111 43.9346 44.1111C43.9346 42.3018 43.9346 34.2654 43.9346 32.4647C47.1508 32.4644 49.7577 35.0715 49.7577 38.2879Z"
								fill="#ECECEC"
							/>
							<path
								d="M40.8241 71.9347C44.0402 71.9347 46.6473 69.3275 46.6473 66.1115C46.6473 62.8954 44.0402 60.2883 40.8241 60.2883C37.6081 60.2883 35.001 62.8954 35.001 66.1115C35.001 69.3275 37.6081 71.9347 40.8241 71.9347Z"
								fill="#F5F5F5"
							/>
							<path
								d="M46.6484 66.1108C46.6484 69.3268 44.0412 71.9339 40.8252 71.9339C40.8252 70.1246 40.8252 62.0883 40.8252 60.2876C44.0414 60.2876 46.6484 62.8948 46.6484 66.1108Z"
								fill="#ECECEC"
							/>
							<path
								d="M78.1767 58.0891C81.3927 58.0891 83.9999 55.482 83.9999 52.2659C83.9999 49.0499 81.3927 46.4427 78.1767 46.4427C74.9606 46.4427 72.3535 49.0499 72.3535 52.2659C72.3535 55.482 74.9606 58.0891 78.1767 58.0891Z"
								fill="#F5F5F5"
							/>
							<path
								d="M83.9989 52.267C83.9989 55.483 81.3918 58.0902 78.1758 58.0902C78.1758 56.2809 78.1758 48.2446 78.1758 46.4438C81.3918 46.4438 83.9989 49.051 83.9989 52.267Z"
								fill="#ECECEC"
							/>
							<path
								d="M72.0488 84.773C75.2648 84.773 77.8719 82.1659 77.8719 78.9499C77.8719 75.7338 75.2648 73.1267 72.0488 73.1267C68.8327 73.1267 66.2256 75.7338 66.2256 78.9499C66.2256 82.1659 68.8327 84.773 72.0488 84.773Z"
								fill="#F5F5F5"
							/>
							<path
								d="M77.873 78.9499C77.873 82.1659 75.2658 84.773 72.0498 84.773C72.0498 82.9638 72.0498 74.9274 72.0498 73.1267C75.2658 73.1267 77.873 75.7339 77.873 78.9499Z"
								fill="#ECECEC"
							/>
						</svg>