<svg width="1440" height="809" viewBox="0 0 1440 809" fill="none" xmlns="http://www.w3.org/2000/svg">
<path d="M-292.717 501.702C-594.769 480.601 -1178.94 436.976 -1178.94 326.872C-1178.94 323.839 -1203.8 266.863 -1226.93 216.838C-1238.62 205.044 -1245 192.291 -1245 178.983C-1245 118.647 -1043.07 35.276 -881.231 35.276C-756.853 35.276 -650.573 64.1652 -608.036 104.927C-575.92 92.8513 -531.798 85.3973 -483.105 85.3973C-421.67 85.3973 -367.511 97.2628 -335.561 115.306C-276.625 68.0444 -148.124 35.276 0.9104 35.276C125.425 35.276 235.607 58.149 302.862 93.2374C339.307 61.3993 421.591 39.1917 517.261 39.1917C646.733 39.1917 751.69 79.8644 751.69 130.037C751.69 131.619 751.586 133.192 751.379 134.754C760.04 134.226 768.919 133.952 777.962 133.952C848.221 133.952 908.511 150.492 934.317 174.072C967.669 139.652 1053.38 115.157 1153.86 115.157C1225.55 115.157 1289.73 127.628 1332.73 147.277C1368.46 97.5823 1486.11 61.1198 1625.75 61.1198C1793.73 61.1198 1968.3 113.889 1968.3 178.983C1968.3 201.023 1952.69 256.107 1925.52 273.751C1962.88 276.266 1984.08 278.012 1984.08 278.751C1984.08 281.492 1984.3 284.382 1984.52 287.351C1985.31 297.866 1986.18 309.36 1977.68 318.628C1953.23 345.277 1895.58 368.077 1819.16 387.618C1846.57 404.271 1867.07 422.644 1877.95 442.927C1883.75 453.746 1883.16 467.165 1882.61 479.441C1882.46 482.907 1882.31 486.281 1882.31 489.481C1882.31 490.343 1867.85 492.382 1842.36 495.318C1860.89 515.916 1871.55 580.224 1871.55 605.954C1871.55 681.948 1752.43 743.553 1637.82 743.553C1542.54 743.553 1462.26 700.985 1437.88 642.969C1408.54 665.909 1364.75 680.467 1315.83 680.467C1247.28 680.467 1188.79 651.871 1166.04 611.687C1148.43 639.215 1107.29 658.525 1059.35 658.525C1053.18 658.525 1047.12 658.205 1041.21 657.589C1041.36 659.413 1041.43 661.249 1041.43 663.096C1041.43 721.669 969.812 769.152 881.47 769.152C816.192 769.152 760.048 743.226 735.181 706.057C689.291 747.021 614.112 773.724 529.152 773.724C427.463 773.724 339.784 735.469 299.57 680.294C277.77 701.358 240.816 715.21 198.898 715.21C165.674 715.21 135.568 706.508 113.655 692.41C84.6301 739.997 12.1134 773.724 -72.7524 773.724C-183.179 773.724 -320.961 676.393 -320.961 605.954C-320.961 590.417 -316.606 575.53 -308.632 561.76C-303.222 541.74 -297.673 520.766 -292.717 501.702Z" fill="#193C6A" fill-opacity="0.51"/>
<path d="M-186.59 510.989C-421.173 487.872 -874.857 440.079 -874.857 319.455C-874.857 316.133 -894.166 253.713 -912.127 198.909C-921.203 185.988 -926.16 172.017 -926.16 157.437C-926.16 91.3361 -769.336 0 -643.646 0C-547.051 0 -464.512 31.6493 -431.476 76.3055C-406.533 63.0762 -372.267 54.91 -334.451 54.91C-286.739 54.91 -244.677 67.9091 -219.864 87.6759C-174.092 35.8991 -115.572 4.28984 0.171692 4.28984C96.8734 4.28984 202.893 65.3733 255.125 103.814C283.429 68.9342 368.162 4.28984 442.462 4.28984C543.013 4.28984 624.526 48.8484 624.526 103.814C624.526 105.548 624.445 107.271 624.285 108.982C631.011 108.404 637.906 108.104 644.93 108.104C699.495 108.104 746.318 126.224 766.36 152.057C792.262 114.348 858.828 87.5128 936.861 87.5128C992.539 87.5128 1042.38 101.175 1075.78 122.702C1103.53 68.2591 1194.9 28.313 1303.34 28.313C1433.8 28.313 1569.38 86.1238 1569.38 157.437C1569.38 181.582 1557.25 241.93 1536.15 261.26C1565.17 264.014 1581.63 265.928 1581.63 266.737C1581.63 269.739 1581.8 272.906 1581.98 276.158C1582.59 287.678 1583.27 300.271 1576.67 310.424C1557.68 339.619 1512.91 364.598 1453.56 386.005C1474.84 404.25 1490.76 424.378 1499.21 446.598C1503.72 458.451 1503.26 473.152 1502.83 486.601C1502.72 490.398 1502.6 494.095 1502.6 497.6C1502.6 498.545 1491.37 500.779 1471.57 503.995C1485.97 526.561 1494.24 597.013 1494.24 625.201C1494.24 708.456 1401.73 775.946 1312.72 775.946C1238.72 775.946 1176.38 729.311 1157.44 665.753C1134.66 690.884 1100.65 706.834 1062.66 706.834C1009.41 706.834 963.994 675.505 946.32 631.482C932.645 661.641 900.697 682.795 863.466 682.795C858.674 682.795 853.969 682.444 849.379 681.769C849.489 683.768 849.544 685.779 849.544 687.803C792.873 809 662.587 762.53 624.285 681.769C556.804 766.742 332.504 821.04 273.397 706.643C256.466 729.72 227.767 744.896 195.212 744.896C169.409 744.896 146.029 735.362 129.01 719.918C106.469 772.051 50.15 809 -15.7592 809C-101.52 809 -208.525 702.37 -208.525 625.201C-208.525 608.18 -205.143 591.87 -198.95 576.785C-194.748 554.852 -190.439 531.874 -186.59 510.989Z" fill="#193C6A" fill-opacity="0.51"/>
</svg>
