<svg width="26" height="20" viewBox="0 0 26 20" fill="none" xmlns="http://www.w3.org/2000/svg">
<path fill-rule="evenodd" clip-rule="evenodd" d="M13.0835 -0.000366211C11.4342 -0.000366211 10.0972 1.33663 10.0972 2.98589V7.59954H3.04063C1.71514 7.59954 0.640625 8.67405 0.640625 9.99954C0.640625 11.325 1.71514 12.3995 3.04063 12.3995H10.0972V17.0134C10.0972 18.6626 11.4342 19.9996 13.0835 19.9996C14.7327 19.9996 16.0697 18.6626 16.0697 17.0134V12.3995H23.1261C24.4516 12.3995 25.5261 11.325 25.5261 9.99954C25.5261 8.67405 24.4516 7.59954 23.1261 7.59954H16.0697V2.98589C16.0697 1.33663 14.7327 -0.000366211 13.0835 -0.000366211Z" fill="#060C14"/>
</svg>
