<svg width="20" height="20" viewBox="0 0 20 20" fill="none" xmlns="http://www.w3.org/2000/svg">
<path fill-rule="evenodd" clip-rule="evenodd" d="M10.0004 0C8.67495 0 7.60044 1.07452 7.60044 2.4V7.5999H2.4C1.07452 7.5999 0 8.67442 0 9.9999C0 11.3254 1.07452 12.3999 2.4 12.3999H7.60044V17.6C7.60044 18.9255 8.67495 20 10.0004 20C11.3259 20 12.4004 18.9255 12.4004 17.6V12.3999H17.6C18.9255 12.3999 20 11.3254 20 9.9999C20 8.67442 18.9255 7.5999 17.6 7.5999H12.4004V2.4C12.4004 1.07452 11.3259 0 10.0004 0Z" fill="#060C14"/>
</svg>
