<svg width="62" height="76" viewBox="0 0 62 76" fill="none" xmlns="http://www.w3.org/2000/svg">
<path d="M31.393 27.1754H31.3652H28.9717V40.4142H31.3652H31.393H33.7865V27.1754H31.393Z" fill="#444242"/>
<path d="M33.7866 27.1749H31.3652V40.4142H33.7866V27.1749Z" fill="#3A3839"/>
<path d="M50.0332 8.3804C46.1149 4.46213 39.7394 4.46213 35.8213 8.3804L42.9274 15.4865L50.0335 22.5926C53.9513 18.6742 53.9516 12.2987 50.0332 8.3804Z" fill="#B7B9C0"/>
<path d="M50.0329 8.38042L42.9268 15.4865L50.0329 22.5926C53.9513 18.6742 53.9513 12.2987 50.0329 8.38042Z" fill="#9B9DA6"/>
<path d="M44.768 13.6459L31.1975 0.0754089L29.3758 1.89693C21.893 9.37974 21.8929 21.555 29.3758 29.0378C36.8587 36.5208 49.0339 36.5206 56.5167 29.0378L58.3383 27.2163L44.768 13.6459Z" fill="#F5C042"/>
<path d="M44.7671 13.6459L29.375 29.038C36.8578 36.5208 49.0331 36.5208 56.5159 29.038L58.3374 27.2165L44.7671 13.6459Z" fill="#E8AD23"/>
<path d="M9.4789 68.0864H0.865234V37.9928H61.8093V68.0864H53.1958H9.4789Z" fill="#F5C042"/>
<path d="M31.3926 37.9928V68.0864H53.2511H61.8647V37.9928H31.3926Z" fill="#E8AD23"/>
<path d="M16.6306 75.4749C11.5971 75.4749 7.50195 71.38 7.50195 66.3463C7.50195 61.3126 11.5969 57.2177 16.6306 57.2177C21.6643 57.2177 25.7592 61.3126 25.7592 66.3463C25.7592 71.38 21.664 75.4749 16.6306 75.4749Z" fill="#444242"/>
<path d="M16.6306 62.0606C14.2673 62.0606 12.3447 63.9832 12.3447 66.3465C12.3447 68.7098 14.2673 70.6323 16.6306 70.6323C18.9939 70.6323 20.9164 68.7098 20.9164 66.3465C20.9164 63.9832 18.9937 62.0606 16.6306 62.0606Z" fill="#211915"/>
<path d="M31.365 75.475C26.3315 75.475 22.2363 71.38 22.2363 66.3463C22.2363 61.3127 26.3315 57.2178 31.365 57.2178C36.3985 57.2178 40.4936 61.3128 40.4936 66.3465C40.4936 71.3801 36.3985 75.475 31.365 75.475Z" fill="#444242"/>
<path d="M31.3652 75.475C31.3652 71.9734 31.3652 62.0917 31.3652 57.218C36.3987 57.218 40.4939 61.3129 40.4939 66.3466C40.4939 71.3803 36.3987 75.475 31.3652 75.475Z" fill="#3A3839"/>
<path d="M31.3649 62.0606C29.0016 62.0606 27.0791 63.9832 27.0791 66.3465C27.0791 68.7098 29.0016 70.6323 31.3649 70.6323C33.7283 70.6323 35.6508 68.7098 35.6508 66.3465C35.6508 63.9832 33.7283 62.0606 31.3649 62.0606Z" fill="#211915"/>
<path d="M46.1003 75.4749C41.0668 75.4749 36.9717 71.38 36.9717 66.3463C36.9717 61.3126 41.0667 57.2177 46.1003 57.2177C51.1337 57.2177 55.2288 61.3126 55.2288 66.3463C55.2288 71.38 51.1337 75.4749 46.1003 75.4749Z" fill="#3A3839"/>
<path d="M46.1004 62.0606C43.7373 62.0606 41.8145 63.9832 41.8145 66.3465C41.8145 68.7098 43.7371 70.6323 46.1004 70.6323C48.4636 70.6323 50.3863 68.7098 50.3863 66.3465C50.3863 63.9832 48.4636 62.0606 46.1004 62.0606Z" fill="#211915"/>
<path d="M22.7658 43.5186H13.1367V46.7471H22.7658V43.5186Z" fill="#444242"/>
<path d="M22.7658 50.4964H13.1367V53.7247H22.7658V50.4964Z" fill="#444242"/>
<path d="M49.5931 43.5186H39.9639V46.7471H49.5931V43.5186Z" fill="#3A3839"/>
<path d="M49.5931 50.4964H39.9639V53.7247H49.5931V50.4964Z" fill="#3A3839"/>
</svg>
