<svg width="44" height="74" viewBox="0 0 44 74" fill="none" xmlns="http://www.w3.org/2000/svg">
<path d="M7.7389 12.7406C5.24288 12.7406 2.87267 11.2553 1.87101 8.80595C1.23081 7.24084 1.23866 5.51995 1.89298 3.96055C2.54715 2.40128 3.76934 1.18993 5.33474 0.550016C6.89972 -0.0900374 8.62032 -0.0821918 10.18 0.571984C11.7393 1.22616 12.9506 2.44835 13.5907 4.01361V4.01375C14.9117 7.24483 13.358 10.9484 10.1272 12.2695C9.3451 12.5892 8.53544 12.7406 7.7389 12.7406ZM7.73077 4.8411C7.52978 4.8411 7.32894 4.88033 7.13737 4.95864C6.7498 5.11726 6.4471 5.41711 6.28505 5.80311C6.12301 6.18939 6.12115 6.61533 6.27963 7.00305C6.60715 7.80329 7.52436 8.18787 8.32418 7.86092C9.12414 7.53355 9.509 6.61648 9.18177 5.81637C9.02329 5.4288 8.72331 5.12611 8.33716 4.96406C8.14202 4.88218 7.93647 4.8411 7.73077 4.8411Z" fill="#CD2D55"/>
<path d="M7.08191 11.1161L10.8828 20.411L15.2914 18.6083L11.4905 9.31337L7.08191 11.1161Z" fill="#CD2D55"/>
<path d="M36.9926 12.7406C36.1957 12.7406 35.3866 12.5892 34.6047 12.2696C31.3734 10.9484 29.8197 7.24469 31.1411 4.01376V4.01361C31.781 2.44836 32.9925 1.22602 34.5516 0.571846C36.111 -0.0824724 37.8317 -0.0901753 39.397 0.549878C40.9621 1.18965 42.1844 2.40114 42.8386 3.96041C43.4929 5.51967 43.5006 7.24056 42.8606 8.80582C41.8586 11.2551 39.488 12.7406 36.9926 12.7406ZM35.5495 5.81638C35.2223 6.61662 35.6072 7.53355 36.4074 7.86093C37.2074 8.18801 38.1245 7.80315 38.4518 7.00305C38.6103 6.61548 38.6083 6.1894 38.4464 5.80311C38.2844 5.41697 37.9817 5.11727 37.5942 4.95865C37.207 4.80031 36.7806 4.80216 36.3941 4.96407C36.0079 5.12611 35.7079 5.42881 35.5495 5.81638Z" fill="#FF5888"/>
<path d="M29.441 18.6083L33.8496 20.4111L37.6505 11.1162L33.2419 9.31339L29.441 18.6083Z" fill="#FF5888"/>
<path d="M22.3661 14.3366C10.5111 14.3366 0.866211 23.9815 0.866211 35.8367V73.1105H22.3661H43.8661V35.8367C43.8662 23.9815 34.2213 14.3366 22.3661 14.3366Z" fill="#F74D37"/>
<path d="M43.8661 35.8367C43.8661 23.9815 34.2213 14.3366 22.3662 14.3366V73.1105H43.8661V35.8367Z" fill="#CD2D55"/>
<path d="M27.8966 57.6045H16.8369V62.3675H27.8966V57.6045Z" fill="#444242"/>
<path d="M27.896 57.6045H22.3662V62.3675H27.896V57.6045Z" fill="#3A3839"/>
<path d="M22.3669 48.4422C28.176 48.4422 32.8852 43.733 32.8852 37.9239C32.8852 32.1148 28.176 27.4056 22.3669 27.4056C16.5578 27.4056 11.8486 32.1148 11.8486 37.9239C11.8486 43.733 16.5578 48.4422 22.3669 48.4422Z" fill="#444242"/>
<path d="M22.3662 27.4042C28.1758 27.4042 32.8852 32.1136 32.8852 37.9232C32.8852 43.7327 28.1759 48.4422 22.3662 48.4422C22.3662 43.5429 22.3662 30.3411 22.3662 27.4042Z" fill="#3A3839"/>
<path d="M22.3663 43.6808C25.5457 43.6808 28.1232 41.1034 28.1232 37.9239C28.1232 34.7444 25.5457 32.167 22.3663 32.167C19.1868 32.167 16.6094 34.7444 16.6094 37.9239C16.6094 41.1034 19.1868 43.6808 22.3663 43.6808Z" fill="#EDEEF0"/>
<path d="M22.3662 32.1671C25.5452 32.1671 28.1223 34.7442 28.1223 37.9232C28.1223 41.1022 25.5452 43.6793 22.3662 43.6793C22.3662 39.9733 22.3662 36.9566 22.3662 32.1671Z" fill="#DCDEE2"/>
<path d="M22.3663 39.6515C23.3204 39.6515 24.0939 38.878 24.0939 37.9239C24.0939 36.9698 23.3204 36.1963 22.3663 36.1963C21.4121 36.1963 20.6387 36.9698 20.6387 37.9239C20.6387 38.878 21.4121 39.6515 22.3663 39.6515Z" fill="#FF5888"/>
<path d="M22.3662 36.1958C23.3202 36.1958 24.0938 36.969 24.0938 37.9233C24.0938 38.8775 23.3205 39.6509 22.3662 39.6509C22.3662 38.6503 22.3662 37.2742 22.3662 36.1958Z" fill="#FF5888"/>
</svg>
