<svg width="79" height="80" viewBox="0 0 79 80" fill="none" xmlns="http://www.w3.org/2000/svg">
<path d="M56.0996 27.5046H70.6848V35.8436H56.0996V27.5046Z" fill="#9B9DA6"/>
<path d="M68.3145 44.651V27.5046H73.0543V44.651H68.3145Z" fill="#3A3839"/>
<path d="M73.6817 50.5777C73.6817 48.9221 72.3398 47.5802 70.6842 47.5802C69.0286 47.5802 67.6866 48.9221 67.6866 50.5777C67.6866 50.9542 67.7567 51.3143 67.8835 51.6462H62.795C62.7481 51.2966 62.7217 50.9401 62.7217 50.5777C62.7217 46.1799 66.2869 42.6149 70.6845 42.6149C75.0821 42.6149 78.6473 46.1801 78.6473 50.5777C78.6473 50.9403 78.6209 51.2964 78.574 51.6462H73.4854C73.6115 51.3143 73.6817 50.9542 73.6817 50.5777Z" fill="#9B9DA6"/>
<path d="M23.4143 35.8436H8.8291V27.5046H23.4143V35.8436Z" fill="#B7B9C0"/>
<path d="M6.45898 44.651V27.5046H11.1988V44.651H6.45898Z" fill="#444242"/>
<path d="M5.83179 50.5777C5.83179 48.9221 7.17371 47.5802 8.82932 47.5802C10.4849 47.5802 11.8268 48.9221 11.8268 50.5777C11.8268 50.9542 11.7568 51.3143 11.63 51.6462H16.7185C16.7654 51.2966 16.7918 50.9401 16.7918 50.5777C16.7918 46.1799 13.2266 42.6149 8.82901 42.6149C4.43139 42.6149 0.866211 46.1799 0.866211 50.5777C0.866211 50.9403 0.892596 51.2964 0.939502 51.6462H6.02806C5.90184 51.3143 5.83179 50.9542 5.83179 50.5777Z" fill="#B7B9C0"/>
<path d="M39.7572 0.0754089C27.905 0.0754089 18.2627 9.71788 18.2627 21.5699V34.7863H39.7572H61.2517V21.5699C61.2517 9.71788 51.6093 0.0754089 39.7572 0.0754089Z" fill="#EDEEF0"/>
<path d="M61.2513 21.5699C61.2513 9.71788 51.609 0.0754089 39.7568 0.0754089V34.7865H61.2513V21.5699Z" fill="#DCDEE2"/>
<path d="M61.2513 21.5699C61.2513 9.71788 51.609 0.0754089 39.7568 0.0754089V34.7865H61.2513V21.5699Z" fill="#DCDEE2"/>
<path d="M61.2513 21.5699C61.2513 9.71788 51.609 0.0754089 39.7568 0.0754089V34.7865H61.2513V21.5699Z" fill="#DCDEE2"/>
<path d="M42.3326 73.9233V63.0393H39.7565H37.1803V73.9233H31.2305V79.0754H39.7565H48.2824V73.9233H42.3326Z" fill="#444242"/>
<path d="M42.333 73.9233V63.0393H39.7568V73.9233V76.4993V79.0754H48.2828V73.9233H42.333Z" fill="#3A3839"/>
<path d="M39.7572 31.7118H18.2627V64.4084H39.7572H61.2517V31.7118H39.7572Z" fill="#93D789"/>
<path d="M61.2518 31.7115H39.7568V64.4072H61.2518V31.7115Z" fill="#83B47B"/>
<path d="M39.7572 35.4938C33.3519 35.4938 28.1592 40.6863 28.1592 47.0918C30.742 47.0918 35.1098 47.0918 39.7572 47.0918C43.7324 47.0918 47.912 47.0918 51.3552 47.0918C51.3552 40.6863 46.1625 35.4938 39.7572 35.4938Z" fill="#EDEEF0"/>
<path d="M39.7568 35.4938V47.0918C43.732 47.0918 47.9116 47.0918 51.3549 47.0918C51.3549 40.6863 46.1622 35.4938 39.7568 35.4938Z" fill="#DCDEE2"/>
<path d="M40.5628 44.1863L39.8535 43.1954L44.2899 38.7593L45.1397 39.6092L40.5628 44.1863Z" fill="#83B47B"/>
<path d="M39.7564 45.5533C40.5113 45.5533 41.1232 44.9414 41.1232 44.1866C41.1232 43.4317 40.5113 42.8198 39.7564 42.8198C39.0016 42.8198 38.3896 43.4317 38.3896 44.1866C38.3896 44.9414 39.0016 45.5533 39.7564 45.5533Z" fill="#93D789"/>
<path d="M41.1236 44.1863C41.1236 44.9411 40.5117 45.553 39.7568 45.553C39.7568 44.7919 39.7568 43.5209 39.7568 42.8197C40.5117 42.8195 41.1236 43.4313 41.1236 44.1863Z" fill="#83B47B"/>
<path d="M28.1595 59.1031C29.4594 59.1031 30.5133 58.0492 30.5133 56.7493C30.5133 55.4493 29.4594 54.3955 28.1595 54.3955C26.8595 54.3955 25.8057 55.4493 25.8057 56.7493C25.8057 58.0492 26.8595 59.1031 28.1595 59.1031Z" fill="#EDEEF0"/>
<path d="M51.3548 59.1031C52.6547 59.1031 53.7086 58.0492 53.7086 56.7493C53.7086 55.4493 52.6547 54.3955 51.3548 54.3955C50.0548 54.3955 49.001 55.4493 49.001 56.7493C49.001 58.0492 50.0548 59.1031 51.3548 59.1031Z" fill="#DCDEE2"/>
<path d="M39.7571 59.1031C41.0571 59.1031 42.1109 58.0492 42.1109 56.7493C42.1109 55.4493 41.0571 54.3955 39.7571 54.3955C38.4572 54.3955 37.4033 55.4493 37.4033 56.7493C37.4033 58.0492 38.4572 59.1031 39.7571 59.1031Z" fill="#EDEEF0"/>
<path d="M39.7568 54.3955C41.0569 54.3955 42.1106 55.4493 42.1106 56.7493C42.1106 58.0492 41.0569 59.1032 39.7568 59.1032C39.7568 57.4919 39.7568 55.5666 39.7568 54.3955Z" fill="#DCDEE2"/>
<path d="M39.7564 22.9786C43.833 22.9786 47.1378 19.6739 47.1378 15.5972C47.1378 11.5206 43.833 8.21581 39.7564 8.21581C35.6798 8.21581 32.375 11.5206 32.375 15.5972C32.375 19.6739 35.6798 22.9786 39.7564 22.9786Z" fill="#93D789"/>
<path d="M39.7568 8.21549C43.8334 8.21549 47.1382 11.5202 47.1382 15.5969C47.1382 19.6736 43.8334 22.9782 39.7568 22.9782C39.7568 19.5403 39.7568 10.2766 39.7568 8.21549Z" fill="#83B47B"/>
<path d="M39.757 19.6364C41.9877 19.6364 43.7961 17.828 43.7961 15.5972C43.7961 13.3664 41.9877 11.558 39.757 11.558C37.5262 11.558 35.7178 13.3664 35.7178 15.5972C35.7178 17.828 37.5262 19.6364 39.757 19.6364Z" fill="#EDEEF0"/>
<path d="M39.7568 11.5577C41.9875 11.5577 43.796 13.3661 43.796 15.5969C43.796 17.8277 41.9877 19.6361 39.7568 19.6361C39.7568 17.0356 39.7568 14.9186 39.7568 11.5577Z" fill="#DCDEE2"/>
<path d="M39.7564 16.8097C40.426 16.8097 40.9689 16.2668 40.9689 15.5972C40.9689 14.9276 40.426 14.3848 39.7564 14.3848C39.0868 14.3848 38.5439 14.9276 38.5439 15.5972C38.5439 16.2668 39.0868 16.8097 39.7564 16.8097Z" fill="#444242"/>
<path d="M39.7568 14.3848C40.4263 14.3848 40.969 14.9274 40.969 15.5969C40.969 16.2664 40.4263 16.8091 39.7568 16.8091C39.7568 16.107 39.7568 15.1416 39.7568 14.3848Z" fill="#3A3839"/>
</svg>
