<svg width="1440" height="784" viewBox="0 0 1440 784" fill="none" xmlns="http://www.w3.org/2000/svg">
<path d="M19.9646 7.40867C-41.5922 6.87147 -100.92 103.631 -146.966 144.479C-142.812 174.439 -137.616 204.301 -134.669 234.481C-126.557 317.537 -129.893 401.324 -130.62 484.583C-131.242 555.927 -136.19 628.875 -133.002 700.387C-38.4399 746.121 36.9635 787.713 163.566 762.965C317.476 732.88 426.944 685.022 591.69 688.483C739.536 691.588 853.3 761.636 1009.15 741.476C1154.32 722.697 1287.85 635.261 1437.97 681.629C1475.19 693.124 1522.77 713.281 1562.43 701.245C1583.09 694.975 1611.81 672.336 1619.77 652.396C1625.06 639.142 1621.94 618.562 1621.84 605.209C1621.32 532.281 1616.81 457.975 1601.32 386.368C1586.53 318.001 1567.2 253.607 1565.91 183.196C1565.12 139.955 1566.33 96.6082 1566.82 53.347C1487.2 71.0479 1420.5 126.428 1349.03 163.163C1217.66 230.683 955.924 9.86936 797.085 8.48319C675.813 7.42487 575.88 98.1339 460.911 131.81C274.72 186.349 186.766 8.86433 19.9646 7.40867Z" fill="#CD2D55" fill-opacity="0.65"/>
<path d="M-41.9303 71.9816C-99.216 71.4817 -110.205 105.396 -150.36 142.739C-146.512 172.917 -141.695 202.996 -138.971 233.397C-131.469 317.112 -134.633 401.572 -135.365 485.498C-135.981 556.072 -140.479 628.207 -137.884 698.998C-50.0074 729.515 19.378 715.711 137.385 690.671C280.794 660.242 386.897 711.352 540.379 714.73C678.115 717.762 790.173 735.033 935.38 714.607C1070.64 695.582 1186.04 636.436 1325.87 683.074C1360.53 694.637 1404.85 714.924 1441.8 702.765C1461.06 696.431 1487.83 673.592 1495.26 653.486C1500.19 640.124 1497.3 619.381 1497.22 605.921C1496.78 532.409 1492.63 457.512 1478.24 385.342C1464.51 316.438 1446.54 251.542 1445.39 180.569C1444.67 135.858 1445.9 91.0349 1446.37 46.308C1397.88 52.9229 1389.84 73.4406 1326.04 108.955C1080.38 245.7 777.25 -47.2601 501.58 40.2857C328.08 95.3848 137.559 109.324 -41.9303 71.9816Z" fill="#CD2D55" fill-opacity="0.65"/>
</svg>
